<svg xmlns="http://www.w3.org/2000/svg" viewBox="0 0 497.77 497.83"><defs><style>.cls-1{fill:#d2c8fc;}.cls-2{fill:#333;}.cls-3{fill:#8894ea;}.cls-4{fill:#020203;}.cls-5{fill:#020204;}.cls-6{fill:#030305;}.cls-7{fill:#030304;}.cls-8{fill:#010101;}.cls-9{fill:#070404;}.cls-10{fill:#2b2b2b;}.cls-11{fill:#fefefe;}.cls-12{fill:#e15972;}.cls-13{fill:#3f456c;}.cls-14{fill:#010102;}.cls-15{fill:#020202;}.cls-16{fill:#040404;}.cls-17{fill:#0a0707;}.cls-18{fill:#30302f;}</style></defs><g id="Layer_2" data-name="Layer 2"><g id="Layer_1-2" data-name="Layer 1"><path class="cls-1" d="M0,248.67C0,111.32,111.71-.09,249.27,0,386.62.09,498,111.73,497.77,249.39c-.26,137.39-111.52,248.69-250,248.44C111.21,497.58,0,385.8,0,248.67Z"/><path class="cls-2" d="M250.33,79.12c1.08.22,1.83-.45,2.63-1,5.26,3.34,11.35,2.1,17,2.69,22.12,2.3,41.08,11.28,56.55,26.9,11.84,12,19.78,26.68,25.68,42.43,6.67,17.81,11.93,36,14.76,54.85,4.12,27.53-.31,53.23-14.58,77.31-7.91,13.36-14.18,27.54-17.19,42.91-2.88,14.67,2,24.84,15,32.12,2.41,1.35,6.2,2.07,4.7,6.31-1.09,3.06-5.54,4.63-9.35,3.74-8.15-1.9-14.41-6.57-19.59-13,2.07,5.18,6.05,8.42,10.67,11.12,1.91,1.12,4.88,1.75,4.42,4.69-.43,2.76-3.15,3.71-5.5,4.54-4.42,1.56-8.61.55-12.43-1.79-8.45-5.16-13.41-13-17.19-22a61.41,61.41,0,0,1-3-40.48c-2.86,3.75-2,8.63-4.26,12.49a1.39,1.39,0,0,1-1.33.53,25.24,25.24,0,0,0-14.81-11.76c-1-.3-2.49-.67-2.25-2.2.16-1.09,1.37-1.33,2.3-1.64a125.31,125.31,0,0,0,13.56-5c16.32-7.59,27.69-19.8,34.46-36.39,1-2.52,10.73-7.24,13-6.33,1.6.64,1.52,2.1,1.26,3.39a12.84,12.84,0,0,1-3.55,6.47c-1,1-2.58,1.63-2.81,3.73,2.36.89,3.54-.9,4.72-2.24,5.44-6.18,6-13.13,2.83-20.48-4.77-11.19-13-19.67-22.28-27.08a147.49,147.49,0,0,0-23.2-14.61c-1.45-.78-3.05-1.41-3.71-3.14.53-2.85,3.42-1.21,5.08-2.76-4.93-1.92-10-.11-14.7-1.41-18-8.32-36.09-16.42-51.74-28.92a83.39,83.39,0,0,1-15.6-16.08,16,16,0,0,1-3.33-7.17c-.16-1.12-.17-2.65-1.6-2.77s-1.81,1.29-2.27,2.35a201.76,201.76,0,0,1-10.45,20.45c-4.91,8.53-10.11,16.89-16.79,24.15a58.16,58.16,0,0,0-15,32c-.72,5.06-1.32,5.27-5.39,2.43-5.88-4.11-8-3.83-11.39,2.4-6.11,11.15-1.95,26.58,13.47,30.77,3.1.84,5.4,1.75,6.7,5,7.74,19.46,22,32.06,41.52,39.13,3,1.1,6.56,1.15,9.57,4.51-7.41,2.76-14.41,5.61-17.75,13.06a1.49,1.49,0,0,1-1.43-.3c-2.79-3.76-1.4-8.84-4.23-12.64.1,3.07,1,6,1.36,9.07C204,329,203.34,338,199.65,347c-2.3,5.56-4.46,11.09-7.84,16.08a31,31,0,0,1-13.18,11.13,12.86,12.86,0,0,1-12.47-.58c-4.15-2.52-4.15-4.64,0-7.3,8.95-5.74,9.58-6.35,12.76-12.61a49.61,49.61,0,0,0-5.59,5.78c-4.3,4.59-9.86,6.68-15.72,8.21-2.69.71-4.94-.48-6.86-2.16-2.59-2.27-2.41-4.52.37-6.56a26.69,26.69,0,0,1,3-1.72c13.9-7.63,19.55-20.21,15.89-35.76a107.52,107.52,0,0,0-11.71-28.57,252,252,0,0,1-13.2-26.34c-9.29-21.91-11.33-44.67-7.29-68,4.79-27.65,12.65-54.22,28.74-77.6,15.58-22.64,36.82-36.73,64.36-40.58C237.37,79.44,243.94,80.76,250.33,79.12Z"/><path d="M297,206.31c16.8,8.31,32.59,18,43.89,33.47,4.63,6.32,8.65,13,8.21,21.4-.31,5.78-3.37,9.95-7.38,13.56-1.39,1.25-3.56,2.67-5.17.27-1.42-2.11.45-3.43,2-4.36,3.6-2.17,4.94-5.45,5.64-9.9-3.75.93-6.52,3.05-10,2.73-1.27-.11-1.76,1.21-2.2,2.36-9.06,23.85-26.94,37.45-51.46,43.89,7,3,14.92,4.53,16.51,13.51.85,1.4.43,2.87.35,4.22.53-1.28-.3-2.88.56-4.23a76.78,76.78,0,0,1,2.83-13.6c.41-1.33.76-2.79,2.6-2.11,1.52.55,1.75,1.87,1.27,3.31-3,8.85-3.81,17.92-1.54,26.95,3.33,13.27,7.78,26.12,20.25,34,4.78,3,9.91,3.75,15,.34,2.51-1.68,2.88-2.94-.32-4.31a28.24,28.24,0,0,1-13.65-11.95c-.74-1.27-2.53-3-.4-4.27,1.61-1,2.76.67,3.54,1.93,4.38,7.06,11,10.85,18.77,12.95,3.44.92,5.77-.74,7.61-3.18,1.68-2.21-.54-2.78-2-3.48-4.94-2.44-9.54-5.24-13.08-9.67-7.05-8.83-6.88-18.68-4.35-28.85a141.78,141.78,0,0,1,16-38.56c12-20,18.39-41.42,16.29-64.62C363.74,183.29,355,150,335.16,120.68,319.44,97.47,297,84.93,269.08,82.22a88.34,88.34,0,0,0-12.89-.78c-2.49.13-3.21-1.17-3.23-3.3,1.77-2.17,4.31-1.57,6.5-1.53,33.28.55,60.49,13.39,79.75,40.9,17.65,25.21,25.56,54.25,30.79,84.08,3.74,21.33,3,42.45-5,62.92-3.21,8.23-7.51,15.93-11.74,23.65a138.8,138.8,0,0,0-14.64,38.54,23.54,23.54,0,0,0,.95,14.16c6.07-8.72,13.28-15.69,22.88-19.77,2-.84,1.05-2.08.66-3.28-1.27-4-2.23-8-1.85-12.25.66-7.4,3.8-12.95,11.37-15.32,7-2.2,12.82-.84,17.07,5.4,1.08,1.58,2,1.64,3.7.83,6.79-3.25,12.54-1.26,17.63,3.8s5.56,11.16,2.8,17.07C407.71,330.5,397,338,382.61,340a6.36,6.36,0,0,1-4.66-1.34,34.34,34.34,0,0,1-8.22-8c-4.54-6.19-4.56-6.17-11.3-1.78a44.81,44.81,0,0,0-12.29,11.56c-1.22,1.72-2.35,3.59-4.64,4.28,3.59,5.44,8.66,8.78,14.37,11.35,4.59,2.07,5.52,5.06,2.85,9.37-2.34,3.77-5.94,5.72-10.19,6.56-1.42.28-2.84.06-4.06,1.38-7.54,8.21-17.83,6.93-25.29,1.59a7.57,7.57,0,0,0-1.34-.59,210.79,210.79,0,0,1,11.23,45.85c.29,2.14.7,4.27.93,6.41.17,1.48.33,3.15-1.5,3.81-2.07.75-3.09-.45-3.66-2.25-1.63-1.86-1.89-4.18-2.19-6.5-2.11-16.23-5.45-32.16-11.56-47.4a131.85,131.85,0,0,0-12-23.51c-1.44-2.18-3.06-4.1-6.1-2.92-7.55,2.92-15.52,3.72-23.46,4.47-3.85.36-5.07,2.1-5,5.77q.17,15.21,0,30.45c0,3,.57,7.24-4,7.15-4.11-.09-3.7-4.09-3.73-7q-.17-16.47,0-32.95c.09-7.56,2.73-10.23,10.41-11.12s15.58-1.33,23-4.15c5.86-2.24,6.21-3.17,2.38-8a10.1,10.1,0,0,1-1.84-5.57,11.39,11.39,0,0,0-11.52-10.1c-1.93.06-2.6,1.2-3,2.75-1.12,4.54-3.92,8-7.13,11.23a81.12,81.12,0,0,0-10.23,13.5,20.84,20.84,0,0,0-3.32,11.8c.11,13.81-.15,27.63.11,41.43.17,9-1.5,17.91-1.14,26.9a5.75,5.75,0,0,1-1.13,3.76c-1.74,3.26-3.49,3.87-5.24,0-1.58-1.81-1.52-4-1.31-6.17,1.93-19.76-.28-39.62,1.17-59.32,1-13.53-4.31-23.42-13.2-32.37-3.1-3.11-5.71-6.51-6.72-10.9-.43-1.9-1.43-2.74-3.53-2.56-6.35.54-10.3,4.19-11,10.6A9.66,9.66,0,0,1,211,333.3c-3.24,3.51-3,4.84,1.59,6.62A52.33,52.33,0,0,0,229,343.79c3.66.17,7.27.82,10.9,1.22,3.47.38,5.37,2,3.11,5.69-3.59,1.7-7.41.6-11.1.93a46.86,46.86,0,0,1-18.56-3.23c-4.37-1.7-6.67-.38-9,3.26-8.47,13.35-14.09,27.84-17.87,43.11-2.32,9.36-4.47,18.76-5.21,28.42a8.68,8.68,0,0,1-1.94,5c-.59,1.8-1.72,3-3.69,2.23-2.24-.93-1.61-3.09-1.36-4.82,2.35-16.47,5.48-32.78,10.86-48.58.21-.61.35-1.24.66-2.31-7.07,4.18-14.2,6.8-21.53,2.22-4-2.51-7.76-5.12-12.55-6.24a10.29,10.29,0,0,1-6.77-6.25c-1.54-3.63-1.6-6.38,3-8.3,17.25-7.29,22.73-19.19,17.68-37.4-3-10.83-8.36-20.6-13.87-30.28-9.54-16.76-16.65-34.31-18.67-53.73-2.58-24.87,2.08-48.68,9.7-72.12,6.26-19.27,14.38-37.63,28-53,19.8-22.37,44.28-34.6,74.68-33.45,2.12.08,4.54-.21,4.89,2.9-1.19,2.49-3.43,2.22-5.61,2.18-38.07-.71-64.76,17.92-82.93,49.91-13.69,24.11-21,50.36-23.81,78-2.3,22.29,1.74,43.21,11.2,63.35,6.91,14.72,16.46,28.19,21,44.07,3.21,11.33,3.68,22.24-3.79,32.34-3.37,4.56-7.91,7.45-12.71,10.18-1.46.83-4.74.71-3.61,3.59a6.05,6.05,0,0,0,7.26,3.86c7.78-1.91,14.52-5.59,19-12.61.93-1.45,2.07-3.78,4.15-2.16,1.69,1.32-.14,3.05-.93,4.37a29.41,29.41,0,0,1-12.9,11.4c-1.09.53-3,.6-2.82,2.3.14,1.36,1.67,1.92,2.8,2.64,4.51,2.86,9.1,2.18,13.25-.3,8.92-5.33,14-13.42,17.55-23.21,2.7-7.43,4.84-14.66,4.76-22.53a51.27,51.27,0,0,0-2.5-15.16c-.51-1.59-.7-3.12,1.1-3.77,2.23-.82,2.44,1.23,2.74,2.56,1,4.35,1.8,8.75,2.69,13.13.86,1.37.06,3,.57,4.32-.09-1.42-.5-2.91.34-4.31,1.53-9.07,9.45-10.57,16.71-13.55-22.23-5.42-38.73-17.45-49.11-37.4a23,23,0,0,1-1.88-4.61c-.76-2.84-2.17-3.95-5.36-4.62-8.06-1.71-14.31-6.44-16.69-14.69-2.43-8.48-1.17-16.42,5.38-22.93,2-2,4.29-1.41,6.35-.16s4,2.84,6.59,4.75c0-19,11.43-31.81,22-45.29,8.39-10.76,14.84-22.81,20.21-35.39.82-1.93,1.35-4.79,3.91-4.53s2.24,2.92,2.53,5.11c.63,4.66,4.06,8,7,11.28,8.4,9.59,18.59,17.08,29.73,23.16,10.77,5.88,21.79,11.3,32.7,16.92-1,3.61-4,2.84-6.57,3.07a232.29,232.29,0,0,1-36.32-18.75,105.15,105.15,0,0,1-30-27.69c-3.58,7.77-7.8,14.32-11.67,21.07a125,125,0,0,1-14.1,19.36c-8.87,10.29-13.38,22.08-13,35.7a13.12,13.12,0,0,1-.24,3.48c-.85,3.49-3.38,4.44-6.38,2.36-2.23-1.54-3.51-4-5.34-5.9-2.75-2.87-4.33-2.64-6,.76-4.46,9,1.71,21.08,11.73,22,5.17.49,7.46,2.87,9.25,7.42,8.72,22.11,25.41,34.79,48.31,39.75,10.92,2.37,11.95-.37,11.65,13.71a11.5,11.5,0,0,0,3.44,9A65.47,65.47,0,0,1,250,337.34c1.4,2.11,2.67,2.3,4.1.08a108.47,108.47,0,0,1,9.8-12.6c2.44-2.75,1.89-6.26,1.91-9.56.06-9.08,0-9.09,8.69-10.7,25-4.64,43-17.88,52-42.17,1.23-3.32,3.28-5.33,7-5.38a11,11,0,0,0,2-.24c5.85-1.14,6.8-3.08,3.73-8.18-6.94-11.52-16.69-20.19-28-27.28a195.06,195.06,0,0,0-18.74-10.46c-1.87-.91-4.18-1.51-4.66-4.09C291.45,203.36,293,203.28,297,206.31Z"/><path class="cls-3" d="M253.34,428.23q.45-37.73.87-75.44c0-3.56,1.79-6.36,3.41-9.22a70.1,70.1,0,0,1,10.48-13.94c3.6-3.74,7.31-7.39,6.85-13.24-.11-1.46.52-2.15,2.13-1.74,3.7,1,7.47,1.69,10.8,3.69,2.77,1.64,4.56,3.85,4.11,7.32s.61,5.86,3.72,7.92c3.58,2.38,3.23,4.41-.84,6.49-8.48,4.34-17.75,5.3-27.09,5.83-8.09.46-9.71,2.27-9.66,10.56.07,11.16,0,22.32.13,33.47,0,1.92-1.37,5,2.05,5.1s2.86-3.12,2.87-5.28c.06-11.49.07-23-.12-34.47-.05-3,.44-4.31,3.92-4.43,9.31-.33,18.65-1.12,27.29-5.05,3.08-1.4,3.8.76,4.95,2.48,11.31,16.85,17.87,35.58,21.86,55.32a238.1,238.1,0,0,1,3.77,24.63l-14.54,0c-3-5.74-4-12.21-6.72-18-.66-1.41-.58-3.3-3.32-4.41.95,5.38,3,9.82,4.31,14.47.63,2.3,2.37,4.56.6,7.09-1.37,1.37-3.13.87-4.74.87-12.14,0-24.28,0-36.42,0-1.67-1.77-1.31-4-1.35-6.13-.09-5.47,0-10.94-.06-16.41,0-1.79,0-3.63-1.23-5.38-1.43,1.08-.9,2.43-.87,3.58.18,6.14.11,12.27.05,18.4,0,2.1.35,4.39-1.64,6Z"/><path class="cls-3" d="M179.39,428.23c2.55-25.49,8.4-50,21-72.61l.48-.88c5.27-9.56,5.26-9.53,15.46-6.66A65.45,65.45,0,0,0,231,350.39c2.78,1.42,6.51-1.43,8.84,2a403.73,403.73,0,0,0,.71,40.71c1.22-13.31,1.08-26.65.93-40a3.57,3.57,0,0,1,1.44-3c1.16-3.42-.81-4-3.57-4.1-7.82-.24-15.6-.87-23.14-3.17a40.87,40.87,0,0,1-5.61-2.05c-5.7-2.7-5.92-4.34-.89-8.14a5.86,5.86,0,0,0,2.54-5c.25-7.2,1.74-9.06,8.62-11.32,1.26-.41,2.57-.67,3.83-1.09,3-1,5-1.07,4.72,3.15a9.9,9.9,0,0,0,3.3,7.55c1.76,1.77,3.39,3.66,5.07,5.51,7.75,8.47,12.26,17.62,11.63,29.94-1.14,22.24-.23,44.58-1.34,66.85l-5.14,0c-1.94-2.45-1.08-5.36-1.29-8.09-.32-4.15.67-8.42-1.16-13.65-1.4,4.57-.65,8.18-1,11.68-.2,2.14.7,4.7-1.93,6.1-.17,3.36-2,4.13-5.2,4.08-13.09-.21-26.18-.1-39.27-.1-.61-3.76,2.13-6.49,3-9.79,1-3.55,3.22-6.79,2.3-10.83-4.18,6.4-5.65,14-9.29,20.61Z"/><path class="cls-4" d="M258.91,428.22a231.93,231.93,0,0,0-.23-26.76c-.11-1.95-.68-4.32,2.33-4.47,2.72-.13,2.49,2.26,2.61,3.94a253,253,0,0,1,.39,27.26C262.32,430.23,260.62,430.3,258.91,428.22Z"/><path class="cls-5" d="M305.17,427.33c-2-6.29-4-12.56-6-18.86-.51-1.64-1.68-3.77.78-4.71,2.71-1.05,3.44,1.37,4,3.2,2,7.11,5.72,13.73,6.36,21.25C308.21,430.11,306.59,429.29,305.17,427.33Z"/><path class="cls-6" d="M237.61,424.23c.18-5.45.34-10.89.55-16.33.08-1.86.18-3.88,2.82-3.71,2.37.16,2.19,2.05,2.18,3.71q-.09,10.16-.2,20.29c-.93,1.43-2.17,2.8-3.9,1.78C236.91,428.68,238.12,426.15,237.61,424.23Z"/><path class="cls-7" d="M189.17,428.2c-1.22-2.56.71-4.37,1.51-6.46,1.72-4.46,3.45-8.91,5.12-13.39.66-1.76,1.2-3.81,3.64-3s1.67,2.69,1.07,4.53a151.44,151.44,0,0,1-7.37,18.35A3.41,3.41,0,0,1,189.17,428.2Z"/><path class="cls-8" d="M336.11,187.27c0,1.46.06,2.82-1.56,2.88s-2.1-1.25-2.45-2.63a70.67,70.67,0,0,0-9.05-21.43c-6.67-10.35-14-20.08-23.5-28.09-1.58-1.33-5.55-2.85-3.15-5.58,2.58-2.93,4.2,1.1,5.7,2.49,12.87,12,24,25.23,30.67,41.75,1.17,2.91,2,6,3,9C335.92,186.24,336,186.89,336.11,187.27Z"/><path class="cls-8" d="M157.14,201.42a74.3,74.3,0,0,1,9.7-33.6c.75-1.3,1.5-3.14,3.27-2.14,2,1.13.72,2.79-.05,4.27-6.24,12-9.91,24.56-8.39,38.24.15,1.36,0,2.43-1.28,2.83-1.87.59-2.06-1-2.56-2.22C156.9,206.54,157.29,204.21,157.14,201.42Z"/><path class="cls-9" d="M280.22,203.26a9.76,9.76,0,0,0,6.89-2c4.25,0,8.51-.13,12.75.06,1.82.09,4.61.33,4.32,2.72-.24,2-2.71,1.74-4.56,1.32a2.18,2.18,0,0,0-2.58.92c-3.07-1-6.15-1.88-8.93.73-1.43,2-3.78,1.89-5.79,2.45s-4.87,1.78-5.87-1.44C275.54,205.11,277.84,204,280.22,203.26Z"/><path class="cls-10" d="M207.12,323.24c-.09,1.39.45,2.85-.48,4.21-.9-1.37-.38-2.83-.43-4.22Z"/><path class="cls-10" d="M298,323.23c0,1.39.46,2.84-.42,4.22-.93-1.36-.4-2.82-.49-4.21Z"/><path class="cls-11" d="M280.22,203.26c-.68.66-1.34,1.35-2.05,2-1.11,1-1.71,2.24-.83,3.46s2.07.25,3.14-.05c2.51-.7,4.88-2.09,7.63-1.6,11,5.87,22.23,11.35,32.16,19,8.78,6.78,16.28,14.63,21.44,24.63,1.76,3.43,1.11,5.11-2.3,6.24-1.1.36-2.24,1.33-3.23,1.17-6.69-1.08-7.71,3.49-9.79,8.33-9.23,21.42-25.94,33.95-48.57,38.74-10.9,2.31-11.08,2.16-11,13.06,0,3.94-.95,7-3.86,9.73a60.78,60.78,0,0,0-5.7,6.92c-1.82,2.32-2.89,5.2-5.47,7.33a120.91,120.91,0,0,0-12.9-17.07c-2.74-3-1.24-7-1.39-10.6-.29-7.23-.14-7.31-7.37-8.59-23.26-4.08-40.93-15.82-51.49-37.36a14.86,14.86,0,0,1-1.46-3.69c-.85-4.7-3-6.53-8.3-6.88-11.69-.78-18.43-16.06-11.92-25.48,1.94-2.8,3.84-3.54,6.24-.69,1.92,2.29,3.79,4.62,5.7,6.92,1,1.18,2,2.28,3.79,1.52,1.58-.67,1.49-2.09,1.43-3.39A61,61,0,0,1,176,218.62a43.76,43.76,0,0,1,9.16-18.06c11.25-13.08,20.28-27.58,28-43a18.32,18.32,0,0,1,1.3-2c8.7,13.09,20.34,22.82,33.51,30.85C258.3,192.79,269.38,197.8,280.22,203.26Z"/><path class="cls-12" d="M366.21,307.26c0-8.69,5.75-14.22,13.31-12.8A9.49,9.49,0,0,1,387,301c1.14,3.15,2.54,4.38,5.76,1.81,4.76-3.79,8.55-3.79,12.63-.69,4.85,3.67,6.26,7.86,3.6,13.54-5.08,10.84-13.89,17-25.64,19-3.08.51-10.88-6.24-11.25-9.34-.17-1.44.75-1.67,1.78-1.75,1.32-.09,2.65-.11,4-.12,1.52,0,3.09.16,3.28-2s-1.23-2.47-2.78-2.72c-.66-.1-1.34-.05-2-.21-2.54-.62-5.17,1.86-7.62-.16C367.78,317.46,366.21,310.2,366.21,307.26Z"/><path class="cls-13" d="M242.94,350.1l-.63,1.86c-.87,1.19-1.9,1.16-3,.38-2.34-2.4-5.82.05-8.26-1.95Z"/><path class="cls-6" d="M279.21,397c5.47.15,11,.17,16.36,1.25,1.86.37,3.92,1,3.32,3.38-.5,2-2.39,1.83-4.15,1.48-8.36-1.69-16.9-.78-25.32-1.68-1.71-.18-4.13.41-4.07-2.34s2.33-2.8,4.41-2.68C272.91,396.62,276.06,396.83,279.21,397Z"/><path class="cls-14" d="M239.28,352.34l3-.38c1.33.89,1.17,2.29,1.16,3.6-.1,12.65-.23,25.3-.32,37.95,0,1.58,0,3.17-2,3.36a2.53,2.53,0,0,1-2.91-2.71C238.34,380.22,237.29,366.24,239.28,352.34Z"/><path class="cls-5" d="M234,401.64c-8.37-.81-16.52.94-24.73,2.1-1.48.21-2.95.49-4.44.62s-2.6-.44-2.75-2.14a2.1,2.1,0,0,1,1.92-2.46c10-1.67,19.94-3.72,30.16-3,1.65.12,3.53.41,3.11,2.87C236.92,401.45,235.73,402.1,234,401.64Z"/><path class="cls-15" d="M213.59,242.5c-4.42,0-8.43-4.19-8.4-8.82,0-4,4-7.64,8.32-7.69,4.62-.06,7.78,3.12,7.78,7.84C221.29,238.75,218,242.47,213.59,242.5Z"/><path class="cls-15" d="M290.6,226c4.28,0,8.33,3.62,8.44,7.57.12,4.64-3.81,8.89-8.26,8.94S283,238.89,283,234C282.89,229.21,286,226,290.6,226Z"/><path class="cls-16" d="M252.69,282.32c-6.85,0-12.41-1.32-17.17-5-1.13-.87-3.29-1.87-1.62-3.88,1.39-1.67,2.55-.16,3.76.66a26.46,26.46,0,0,0,29-.1c1.28-.87,2.45-2.13,3.76-.49s-.39,2.76-1.44,3.6A24.93,24.93,0,0,1,252.69,282.32Z"/><path class="cls-17" d="M206.1,205.29c-1.93-.4-5.74,1.86-6-1.58-.19-2.66,3.77-2.36,6.12-2.64,6.08-.71,11.84.88,17.53,2.75a7.69,7.69,0,0,1,2.11,1.28c1.17.88,1.84,2.17,1.1,3.47s-2.05.5-3.12.12C218.2,206.65,212.46,205.15,206.1,205.29Z"/><path class="cls-18" d="M198.64,245.25c1.39.32,2.42,1.1,2.29,2.64a2.34,2.34,0,1,1-4.65-.49A2.46,2.46,0,0,1,198.64,245.25Z"/></g></g></svg>