<svg width="81" height="81" viewBox="0 0 81 81" fill="none" xmlns="http://www.w3.org/2000/svg">
<path d="M48.0186 40.8398C46.52 40.3467 44.3625 40.4526 41.5462 40.4526H30.2317V55.2211H42.3315C44.2219 55.2211 45.5497 55.0188 46.3145 54.8775C47.6623 54.6361 48.7892 54.1686 49.6945 53.6049C50.5993 53.0424 51.3435 52.189 51.9278 51.1129C52.5108 50.0367 52.803 48.7775 52.803 47.3694C52.803 45.7205 52.3805 44.4542 51.5348 43.2368C50.6898 42.0194 49.518 41.333 48.0186 40.8398ZM46.4654 34.0874C47.9531 33.6457 49.0749 32.8739 49.8294 31.8484C50.5845 30.8223 50.9614 29.5169 50.9614 27.9675C50.9614 26.4997 50.6089 25.1975 49.9045 24.0802C49.2001 22.963 48.1952 22.5308 46.8873 22.118C45.5793 21.7064 43.3364 21.8316 40.158 21.8316H30.2317V34.6737H40.8823C43.4777 34.6737 45.3378 34.4297 46.4654 34.0874ZM80.3159 10.675C80.3159 4.77919 75.5367 0 69.6409 0H10.7277C4.83192 0 0.0527344 4.77919 0.0527344 10.675V69.5882C0.0527344 75.484 4.83192 80.2632 10.7277 80.2632H69.6409C75.5367 80.2632 80.3159 75.484 80.3159 69.5882V10.675ZM57.5552 53.131C56.6806 54.9116 55.5987 56.2844 54.3113 57.2501C53.0232 58.2158 51.4083 59.0352 49.4672 59.5283C47.5268 60.0221 45.1471 60.3579 42.3315 60.3579H24.4527V16.0526H42.0593C45.4393 16.0526 48.1496 16.4437 50.1915 17.3381C52.2341 18.2339 53.8329 19.5836 54.9906 21.4444C56.147 23.3052 56.7256 25.2373 56.7256 27.2689C56.7256 29.1599 56.2119 30.9341 55.1865 32.6035C54.1604 34.2743 52.611 35.6176 50.5395 36.6437C53.2146 37.4283 55.2719 38.7652 56.7102 40.6555C58.1485 42.5465 58.8677 44.7791 58.8677 47.354C58.8677 49.4261 58.4304 51.3511 57.5552 53.131Z" fill="#5B4282"/>
</svg>
