<svg width="80" height="79" viewBox="0 0 80 79" fill="none" xmlns="http://www.w3.org/2000/svg">
<path fill-rule="evenodd" clip-rule="evenodd" d="M40.0398 39.5C40.0398 34.0463 44.4611 29.625 49.9148 29.625C55.3685 29.625 59.7898 34.0463 59.7898 39.5C59.7898 44.9537 55.3685 49.375 49.9148 49.375C44.4611 49.375 40.0398 44.9537 40.0398 39.5Z" fill="#1ABCFE"/>
<path fill-rule="evenodd" clip-rule="evenodd" d="M20.2898 59.25C20.2898 53.7963 24.711 49.375 30.1648 49.375H40.0398V59.25C40.0398 64.7037 35.6185 69.125 30.1648 69.125C24.711 69.125 20.2898 64.7037 20.2898 59.25Z" fill="#0ACF83"/>
<path fill-rule="evenodd" clip-rule="evenodd" d="M40.0398 9.875V29.625H49.9148C55.3685 29.625 59.7898 25.2037 59.7898 19.75C59.7898 14.2962 55.3685 9.875 49.9148 9.875H40.0398Z" fill="#FF7262"/>
<path fill-rule="evenodd" clip-rule="evenodd" d="M20.2898 19.75C20.2898 25.2037 24.711 29.625 30.1648 29.625H40.0398V9.875H30.1648C24.711 9.875 20.2898 14.2962 20.2898 19.75Z" fill="#F24E1E"/>
<path fill-rule="evenodd" clip-rule="evenodd" d="M20.2898 39.5C20.2898 44.9537 24.711 49.375 30.1648 49.375H40.0398V29.625H30.1648C24.711 29.625 20.2898 34.0463 20.2898 39.5Z" fill="#A259FF"/>
</svg>
