<svg width="82" height="81" viewBox="0 0 82 81" fill="none" xmlns="http://www.w3.org/2000/svg">
<path d="M79.5305 37.1977L44.4918 2.15783C44.0125 1.67685 43.443 1.29522 42.8159 1.03482C42.1888 0.774423 41.5165 0.640381 40.8375 0.640381C40.1585 0.640381 39.4861 0.774423 38.859 1.03482C38.2319 1.29522 37.6624 1.67685 37.1831 2.15783L29.906 9.43524L39.135 18.6646C40.2233 18.2942 41.3937 18.237 42.5129 18.4995C43.6322 18.7619 44.6552 19.3335 45.4654 20.1491C46.2755 20.9647 46.8404 21.9915 47.0954 23.1125C47.3505 24.2335 47.2855 25.4036 46.908 26.4894L55.793 35.3748C57.1211 34.9185 58.5655 34.9312 59.8854 35.4106C61.2053 35.89 62.3211 36.8072 63.0469 38.0095C63.7726 39.2117 64.0645 40.6264 63.8739 42.0177C63.6833 43.4091 63.0217 44.6931 61.9993 45.6558C60.9769 46.6185 59.6556 47.2019 58.2553 47.3086C56.8551 47.4153 55.4606 47.0389 54.3041 46.2423C53.1477 45.4456 52.2992 44.2766 51.8999 42.9303C51.5007 41.5839 51.5748 40.1413 52.11 38.843L43.8125 30.5452V52.3774C45.0695 53.0002 46.0751 54.0348 46.6619 55.309C47.2487 56.5831 47.3813 58.0199 47.0375 59.3799C46.6938 60.74 45.8945 61.9412 44.7727 62.7834C43.651 63.6257 42.2745 64.0583 40.8727 64.009C39.4708 63.9597 38.1281 63.4316 37.0682 62.5126C36.0084 61.5937 35.2954 60.3393 35.048 58.9585C34.8006 57.5777 35.0337 56.1538 35.7085 54.924C36.3833 53.6942 37.4591 52.7327 38.7566 52.1997V30.1668C38.006 29.8588 37.3237 29.4053 36.749 28.8325C36.1744 28.2597 35.7187 27.5788 35.4084 26.829C35.098 26.0793 34.939 25.2756 34.9406 24.4642C34.9422 23.6528 35.1043 22.8497 35.4176 22.1012L26.3319 13.0095L2.30497 37.0458C1.82357 37.5252 1.44159 38.0949 1.18095 38.7223C0.920305 39.3497 0.786133 40.0224 0.786133 40.7017C0.786133 41.3811 0.920305 42.0538 1.18095 42.6812C1.44159 43.3086 1.82357 43.8783 2.30497 44.3576L37.3436 79.3861C37.8229 79.8671 38.3924 80.2487 39.0195 80.5091C39.6466 80.7695 40.319 80.9035 40.998 80.9035C41.677 80.9035 42.3493 80.7695 42.9764 80.5091C43.6035 80.2487 44.173 79.8671 44.6523 79.3861L79.5305 44.4981C80.0119 44.0187 80.3938 43.449 80.6545 42.8216C80.9151 42.1942 81.0493 41.5216 81.0493 40.8422C81.0493 40.1628 80.9151 39.4901 80.6545 38.8628C80.3938 38.2354 80.0119 37.6656 79.5305 37.1863" fill="#DD4C35"/>
<path d="M29.9061 9.43481L39.1351 18.6641C40.2234 18.2938 41.3939 18.2366 42.5131 18.499C43.6323 18.7615 44.6553 19.3331 45.4655 20.1487C46.2757 20.9643 46.8405 21.9911 47.0956 23.1121C47.3506 24.2331 47.2857 25.4031 46.9081 26.489L55.7932 35.3744C57.1213 34.9181 58.5656 34.9307 59.8855 35.4101C61.2055 35.8896 62.3213 36.8068 63.047 38.0091C63.7728 39.2113 64.0647 40.626 63.8741 42.0173C63.6834 43.4086 63.0218 44.6926 61.9994 45.6554C60.9771 46.6181 59.6557 47.2014 58.2555 47.3081C56.8552 47.4149 55.4607 47.0385 54.3043 46.2418C53.1478 45.4451 52.2993 44.2762 51.9001 42.9298C51.5008 41.5834 51.575 40.1409 52.1102 38.8425L43.8127 30.5448V52.377C45.0696 52.9998 46.0752 54.0344 46.662 55.3086C47.2488 56.5827 47.3814 58.0195 47.0377 59.3795C46.6939 60.7395 45.8946 61.9407 44.7729 62.783C43.6511 63.6253 42.2747 64.0578 40.8728 64.0086C39.4709 63.9593 38.1282 63.4312 37.0684 62.5122C36.0086 61.5932 35.2955 60.3389 35.0481 58.9581C34.8007 57.5773 35.0338 56.1534 35.7086 54.9236C36.3835 53.6938 37.4592 52.7323 38.7568 52.1993V30.1664C38.0061 29.8584 37.3238 29.4049 36.7492 28.8321C36.1745 28.2592 35.7189 27.5783 35.4085 26.8286C35.0981 26.0789 34.9392 25.2752 34.9407 24.4638C34.9423 23.6524 35.1044 22.8493 35.4177 22.1008L26.332 13.009" fill="white"/>
</svg>
