<svg width="80" height="80" viewBox="0 0 80 80" fill="none" xmlns="http://www.w3.org/2000/svg">
<path d="M0.27002 28.6881C0.27002 18.6464 0.27002 13.6255 2.22428 9.79001C3.9433 6.41625 6.68627 3.67328 10.06 1.95426C13.8955 0 18.9164 0 28.9581 0H50.8519C60.8937 0 65.9146 0 69.7498 1.95426C73.1236 3.67328 75.8667 6.41625 77.5857 9.79001C79.54 13.6255 79.54 18.6464 79.54 28.6881V50.5819C79.54 60.6237 79.54 65.6446 77.5857 69.4798C75.8667 72.8536 73.1236 75.5966 69.7498 77.3157C65.9146 79.27 60.8937 79.27 50.8519 79.27H28.9581C18.9164 79.27 13.8955 79.27 10.06 77.3157C6.68627 75.5966 3.9433 72.8536 2.22428 69.4798C0.27002 65.6446 0.27002 60.6237 0.27002 50.5819V28.6881Z" fill="#330000"/>
<path d="M38.6839 49.8163H26.4002L23.9009 57.7792C23.8315 58.0751 23.5592 58.2846 23.2628 58.2699H17.041C16.6862 58.2699 16.5622 58.07 16.6688 57.6699L27.3041 26.2547C27.4106 25.9274 27.517 25.5549 27.6232 25.1367C27.7625 24.4088 27.8335 23.6694 27.8361 22.9279C27.8055 22.7088 27.998 22.5153 28.2081 22.5459H36.6634C36.9111 22.5459 37.0526 22.6369 37.0886 22.8186L49.16 57.7246C49.2661 58.0884 49.16 58.2701 48.8409 58.2699H41.9277C41.6854 58.2976 41.4538 58.1314 41.3961 57.8882L38.6839 49.8163ZM28.3145 42.9441H36.7166C35.3361 38.227 33.7782 33.5719 32.5156 28.8182C31.1532 33.5801 29.6669 38.3227 28.3145 42.9441Z" fill="#FF9A00"/>
<path d="M56.3381 28.327C55.7957 28.3494 55.255 28.254 54.7507 28.0473C54.2468 27.8406 53.791 27.527 53.4133 27.1272C53.0368 26.7099 52.7441 26.2207 52.5524 25.687C52.3608 25.1537 52.2738 24.5866 52.2965 24.0184C52.2772 23.4559 52.3738 22.8956 52.5799 22.374C52.7863 21.8524 53.0974 21.3813 53.4932 20.9914C53.885 20.6055 54.3476 20.3032 54.8544 20.102C55.3608 19.9007 55.9013 19.8045 56.4443 19.8188C57.7208 19.8188 58.7222 20.2097 59.4489 20.9914C59.8158 21.3976 60.1009 21.8741 60.288 22.3935C60.4749 22.9129 60.5604 23.4652 60.5389 24.0184C60.5612 24.5886 60.4715 25.1579 60.275 25.6919C60.0788 26.2258 59.7796 26.7139 59.3957 27.1272C58.9945 27.5329 58.5155 27.8488 57.9895 28.0555C57.4632 28.2619 56.9009 28.3545 56.3381 28.327ZM52.6688 57.7243V31.6541C52.6688 31.3268 52.81 31.1632 53.0943 31.1632H59.6352C59.9183 31.1632 60.0601 31.3268 60.0604 31.6541V57.7243C60.0604 58.0884 59.9186 58.2701 59.6352 58.2698H53.1475C52.8284 58.2698 52.6688 58.0881 52.6688 57.7243Z" fill="#FF9A00"/>
</svg>
