<svg width="81" height="81" viewBox="0 0 81 81" fill="none" xmlns="http://www.w3.org/2000/svg">
<path fill-rule="evenodd" clip-rule="evenodd" d="M0.0493164 0.640381H80.3125V80.9035H0.0493164V0.640381Z" fill="white"/>
<path fill-rule="evenodd" clip-rule="evenodd" d="M33.516 43.0001C33.516 43.0001 31.5989 44.1156 34.8818 44.4925C38.8601 44.9467 40.8921 44.8814 45.2747 44.0523C45.2747 44.0523 46.4285 44.7748 48.0392 45.3998C38.2118 49.6108 25.7981 45.1562 33.516 43.0001ZM32.3147 37.5049C32.3147 37.5049 30.164 39.0968 33.4498 39.4366C37.6996 39.8754 41.0541 39.9112 46.8624 38.7936C46.8624 38.7936 47.6644 39.6077 48.9265 40.0524C37.0463 43.5272 23.8148 40.326 32.3147 37.5049Z" fill="#3174B9"/>
<path fill-rule="evenodd" clip-rule="evenodd" d="M42.4375 28.1823C44.8601 30.9709 41.8025 33.4788 41.8025 33.4788C41.8025 33.4788 47.951 30.3055 45.127 26.3301C42.4903 22.6246 40.4679 20.7837 51.4154 14.4353C51.4154 14.4353 34.2307 18.7254 42.4375 28.1823Z" fill="#CA3132"/>
<path fill-rule="evenodd" clip-rule="evenodd" d="M55.4346 47.065C55.4346 47.065 56.8536 48.2351 53.8714 49.1399C48.2005 50.8575 30.2642 51.3755 25.282 49.2082C23.4923 48.4287 26.8501 47.3481 27.9065 47.1199C29.0083 46.8818 29.6371 46.9251 29.6371 46.9251C27.6454 45.5226 16.7637 49.6795 24.1106 50.8721C44.1444 54.1204 60.6304 49.4097 55.4346 47.065ZM34.4385 31.8107C34.4385 31.8107 25.3161 33.978 31.2085 34.7658C33.6974 35.0985 38.655 35.0219 43.2766 34.6343C47.0525 34.3174 50.8425 33.6395 50.8425 33.6395C50.8425 33.6395 49.5121 34.2104 48.5482 34.8674C39.2829 37.3046 21.387 36.1695 26.5395 33.6782C30.8958 31.5708 34.4385 31.8107 34.4385 31.8107ZM50.8046 40.9577C60.2223 36.065 55.868 31.3622 52.8279 31.996C52.0846 32.1513 51.7511 32.2854 51.7511 32.2854C51.7511 32.2854 52.0284 31.8515 52.5556 31.6649C58.5688 29.5517 63.1925 37.8992 50.6168 41.205C50.6164 41.205 50.7613 41.0743 50.8046 40.9577Z" fill="#3174B9"/>
<path fill-rule="evenodd" clip-rule="evenodd" d="M45.1268 4.1814C45.1268 4.1814 50.3413 9.39928 40.1795 17.4203C32.0302 23.857 38.3216 27.5259 40.177 31.7194C35.4193 27.4276 31.9295 23.6488 34.2704 20.1328C37.7074 14.9715 47.2308 12.4685 45.1268 4.1814Z" fill="#CA3132"/>
<path fill-rule="evenodd" clip-rule="evenodd" d="M35.3647 54.22C44.4031 54.798 58.2853 53.899 58.6147 49.6213C58.6147 49.6213 57.9826 51.2428 51.1441 52.529C43.4287 53.9814 33.9111 53.8124 28.2681 52.8809C28.2681 52.8809 29.4244 53.8378 35.3647 54.22Z" fill="#3174B9"/>
<path fill-rule="evenodd" clip-rule="evenodd" d="M58.1972 61.8907H57.9224V61.7366H58.664V61.8907H58.3892V62.6602H58.1972V61.8907ZM59.6771 61.929H59.6738L59.4006 62.6598H59.2753L59.0038 61.929H59.0005V62.6598H58.8181V61.7362H59.0858L59.3373 62.3895L59.5888 61.7362H59.8541V62.6598H59.6775L59.6771 61.929ZM33.8838 70.5622C33.0314 71.3008 32.1303 71.7164 31.3212 71.7164C30.1687 71.7164 29.5432 71.0239 29.5432 69.9159C29.5432 68.7163 30.2128 67.8385 32.8927 67.8385H33.8833L33.8838 70.5622ZM36.2364 73.2163V64.9999C36.2364 62.9 35.0388 61.5142 32.152 61.5142C30.4676 61.5142 28.9911 61.9302 27.7906 62.4603L28.1362 63.9156C29.0819 63.5683 30.3044 63.2465 31.5045 63.2465C33.1676 63.2465 33.8833 63.9156 33.8833 65.301V66.3399H33.0522C29.0123 66.3399 27.1893 67.9072 27.1893 70.2636C27.1893 72.2939 28.3906 73.4482 30.6521 73.4482C32.1057 73.4482 33.1917 72.8482 34.2056 71.97L34.3901 73.2163H36.2364ZM44.0884 73.2163H41.1549L37.6226 61.7233H40.1851L42.3774 68.7858L42.8655 70.9078C43.9714 67.8385 44.7563 64.7226 45.149 61.7233H47.6407C46.9736 65.5075 45.7719 69.6623 44.0884 73.2163ZM55.3466 70.5622C54.4917 71.3008 53.5906 71.7164 52.7832 71.7164C51.6306 71.7164 51.006 71.0239 51.006 69.9159C51.006 68.7163 51.676 67.8385 54.3543 67.8385H55.3466V70.5622ZM57.7 73.2163V64.9999C57.7 62.9 56.4987 61.5142 53.6148 61.5142C51.9288 61.5142 50.4526 61.9302 49.2522 62.4603L49.5978 63.9156C50.5434 63.5683 51.7685 63.2465 52.9689 63.2465C54.6295 63.2465 55.3461 63.9156 55.3461 65.301V66.3399H54.515C50.4747 66.3399 48.653 67.9072 48.653 70.2636C48.653 72.2939 49.8518 73.4482 52.1136 73.4482C53.5685 73.4482 54.6528 72.8482 55.6693 71.97L55.8546 73.2163H57.7ZM24.6097 75.1692C23.9393 76.149 22.855 76.9247 21.6696 77.3623L20.5078 75.9941C21.411 75.5306 22.1846 74.7823 22.5448 74.0861C22.855 73.4657 22.9845 72.6679 22.9845 70.7583V57.6355H25.485V70.5771C25.485 73.1313 25.281 74.1636 24.6097 75.1692Z" fill="#CA3132"/>
</svg>
