<svg width="81" height="81" viewBox="0 0 81 81" fill="none" xmlns="http://www.w3.org/2000/svg">
<path d="M0.526367 0H80.7895V80.2632H0.526367V0Z" fill="#F0DB4F"/>
<path d="M74.221 61.1205C73.6331 57.4589 71.2454 54.3832 64.1727 51.5153C61.7158 50.3863 58.9768 49.5778 58.1606 47.7159C57.8708 46.6323 57.8323 46.0219 58.0157 45.366C58.5421 43.2374 61.083 42.5738 63.0969 43.1842C64.3939 43.6189 65.6218 44.6184 66.3623 46.213C69.8259 43.9702 69.8188 43.985 72.2373 42.4436C71.3518 41.0709 70.8793 40.4375 70.2997 39.8502C68.2166 37.5234 65.3781 36.3251 60.8387 36.4168L58.4741 36.7226C56.2082 37.2951 54.0488 38.4845 52.7825 40.079C48.983 44.3902 50.0666 51.9353 54.69 55.0404C59.2448 58.4591 65.9359 59.2368 66.7906 62.4336C67.6222 66.3472 63.9144 67.6141 60.229 67.164C57.513 66.5992 56.0024 65.2188 54.3694 62.7087C51.3636 64.4481 51.3636 64.4481 48.2732 66.2254C49.0061 67.8276 49.7761 68.5528 51.0046 69.9409C56.8186 75.8382 71.3679 75.5485 73.9774 66.6223C74.0832 66.3158 74.7859 64.2718 74.221 61.1205ZM44.1602 36.8893H36.6528L36.622 56.2984C36.622 60.4261 36.8355 64.2102 36.1643 65.3701C35.0659 67.6513 32.2198 67.3686 30.9228 66.9262C29.6026 66.2773 28.9313 65.3547 28.1536 64.0506C27.9401 63.6762 27.7798 63.3864 27.7259 63.3639L21.6221 67.1019C22.637 69.185 24.1322 70.993 26.0474 72.1676C28.9082 73.8847 32.7533 74.411 36.7746 73.4878C39.3919 72.7254 41.65 71.1463 42.8323 68.7426C44.5417 65.5913 44.1749 61.7771 44.1595 57.5582C44.198 50.6754 44.1602 43.7939 44.1602 36.8893Z" fill="#323330"/>
</svg>
