<svg width="107" height="73" viewBox="0 0 107 73" fill="none" xmlns="http://www.w3.org/2000/svg">
<path d="M103.096 33.7078C102.807 33.6865 102.471 33.6723 102.132 33.6723C100.422 33.6723 98.7866 33.9916 97.2817 34.5733L97.3735 34.5413C96.9319 34.7187 96.2254 34.7187 96.1654 35.2827C96.4091 35.5168 96.4444 35.9034 96.6493 36.2297C97.0626 36.932 97.5713 37.5279 98.1648 38.0245L98.1754 38.0351C98.7936 38.5211 99.4118 38.9928 100.062 39.4078C101.21 40.1172 102.514 40.5393 103.637 41.2522C104.276 41.6672 104.93 42.1957 105.58 42.6391C105.901 42.859 106.11 43.2598 106.523 43.4017V43.313C106.322 43.047 106.258 42.6604 106.06 42.366C105.764 42.0681 105.47 41.802 105.177 41.5112C104.301 40.3584 103.287 39.3723 102.15 38.5494L102.107 38.5211C101.164 37.8755 99.0974 36.971 98.7089 35.8821L98.6523 35.8183C99.4224 35.7083 100.108 35.5451 100.768 35.3252L100.684 35.3501C101.687 35.084 102.605 35.1408 103.64 34.8818C104.107 34.7612 104.58 34.6158 105.053 34.4668V34.2008C104.524 33.6688 104.128 32.9452 103.58 32.4486C102.136 31.1717 100.542 29.9728 98.8643 28.8945L98.7053 28.7988C97.7798 28.2064 96.6034 27.8233 95.6284 27.3197C95.2751 27.1423 94.6852 27.0536 94.4803 26.7557C94.021 26.0995 93.6148 25.3475 93.2933 24.553L93.2651 24.475C92.3984 22.7866 91.5929 21.0687 90.8487 19.3212C90.34 17.9627 89.8349 16.8489 89.2661 15.7707L89.3474 15.9374C86.5707 11.2589 82.7025 7.49907 78.0853 4.9346L77.9334 4.85656C76.8418 4.31388 75.5736 3.89178 74.2418 3.65413L74.1535 3.63995C73.4152 3.60448 72.6804 3.55127 71.9456 3.51935C71.4298 3.18593 70.9847 2.84542 70.5679 2.46944L70.5784 2.48008C68.9004 1.41598 64.5588 -0.889563 63.3224 2.16085C62.5276 4.08332 64.5023 5.98096 65.1841 6.95638C65.7281 7.60548 66.2227 8.33261 66.6502 9.10231L66.6855 9.17325C66.8939 9.68757 66.9504 10.2161 67.1589 10.7517C67.6711 12.3549 68.1904 13.6708 68.7803 14.9442L68.6885 14.7243C69.0382 15.4301 69.4021 16.0296 69.8083 16.5971L69.7801 16.5545C70.0168 16.8773 70.423 17.0298 70.5184 17.5619C70.2146 18.2039 69.9779 18.9488 69.8472 19.7256L69.8401 19.7752C69.4586 20.9528 69.236 22.3113 69.236 23.7195C69.236 25.9221 69.7765 27.9971 70.7304 29.8203L70.695 29.7493C71.1684 30.4836 72.2918 32.1152 73.7967 31.4909C75.1214 30.9589 74.8282 29.2741 75.2097 27.7914C75.2981 27.4367 75.2415 27.2026 75.4217 26.9614V27.0288C75.835 27.8624 76.2519 28.6569 76.6299 29.4904C77.6967 31.0334 78.9649 32.3457 80.4133 33.4276L80.4592 33.4595C81.1658 33.9916 81.7275 34.9138 82.6106 35.2401V35.1514H82.5435C82.3421 34.9315 82.1196 34.7364 81.8758 34.5697L81.8617 34.5626C81.3141 34.0235 80.8054 33.4418 80.3462 32.8281L80.3179 32.7891C79.1663 31.2284 78.0712 29.462 77.1209 27.607L77.0184 27.3906C76.5345 26.4613 76.1282 25.4575 75.7396 24.5388C75.563 24.1841 75.563 23.6521 75.2663 23.4747C74.7434 24.0635 74.2736 24.7197 73.8815 25.4256L73.8532 25.4823C73.401 26.8053 73.1043 28.3341 73.0266 29.9196V29.9586C72.9065 29.9905 72.9665 29.9586 72.9065 30.0225C71.9632 29.7919 71.6382 28.8094 71.285 27.9829C70.8045 26.6847 70.5255 25.1808 70.5255 23.6166C70.5255 22.3539 70.7056 21.1337 71.0448 19.9809L71.0236 20.0732C71.232 19.4524 72.1152 17.4945 71.7619 16.8986C71.5782 16.3346 70.9953 16.0119 70.6703 15.5543C70.2852 15.0081 69.932 14.3873 69.6388 13.7311L69.6105 13.6602C68.904 12.0038 68.5507 10.1664 67.7841 8.50996C67.3214 7.6445 66.8339 6.89963 66.2863 6.20442L66.311 6.23634C65.7281 5.55887 65.1912 4.80336 64.7249 4.00174L64.686 3.9308C64.5412 3.60802 64.3327 3.07243 64.5659 2.71773C64.6083 2.512 64.7708 2.35239 64.9792 2.32047C65.3678 2.00124 66.4629 2.41623 66.8445 2.59358C67.9643 3.01922 68.9287 3.51935 69.8225 4.10815L69.7659 4.07268C70.1793 4.36353 70.6279 4.9275 71.1578 5.07293H71.776C72.7192 5.2822 73.7861 5.13678 74.6693 5.39571C76.2907 5.94549 77.6932 6.63361 78.9897 7.47779L78.9155 7.43168C82.8155 9.96068 85.9384 13.38 88.0509 17.42L88.1215 17.5654C88.4748 18.2465 88.6302 18.8743 88.9517 19.5837C89.5699 21.045 90.333 22.5241 90.9618 23.9358C91.5588 25.4539 92.2653 26.7663 93.1061 27.9759L93.0637 27.912C93.5053 28.5327 95.2787 28.8555 96.0735 29.1783C96.9107 29.4727 97.5819 29.7529 98.2319 30.0686L98.1012 30.0118C99.1151 30.6326 100.104 31.3419 101.058 32.023C101.542 32.3599 103.015 33.1013 103.103 33.6972L103.096 33.7078ZM61.6797 59.6469C61.6797 59.7001 61.6833 59.7604 61.6833 59.8207C61.6833 61.8 60.8036 63.5699 59.4118 64.7617L59.4012 64.7688C57.8751 66.0173 55.9074 66.7764 53.7631 66.7764C53.5971 66.7764 53.431 66.7729 53.2685 66.7622H53.2897C50.6791 66.7267 48.2769 65.8755 46.3092 64.4531L46.3446 64.4779L47.3902 62.3675C48.9057 63.2188 50.7074 63.7473 52.622 63.8218H52.6432C52.7386 63.8288 52.8481 63.8324 52.9612 63.8324C54.134 63.8324 55.2256 63.4635 56.1194 62.8357L56.1017 62.8463C56.9107 62.2292 57.4264 61.2644 57.4264 60.179C57.4264 60.1577 57.4264 60.14 57.4264 60.1187V60.1222C57.4264 58.6609 56.4126 57.4194 54.565 56.3766C52.8517 55.4331 49.4321 53.4645 49.4321 53.4645C47.7435 52.4146 46.6378 50.5666 46.6378 48.4597C46.6378 48.3852 46.6378 48.3108 46.6413 48.2363V48.2469C46.6378 48.1795 46.6378 48.1015 46.6378 48.0234C46.6378 46.1967 47.4397 44.558 48.7079 43.4443L48.7149 43.4372C50.0644 42.288 51.8272 41.5892 53.7525 41.5892C53.8761 41.5892 53.9962 41.5928 54.1164 41.5963H54.0987C54.1305 41.5963 54.1693 41.5963 54.2082 41.5963C56.4656 41.5963 58.5675 42.2738 60.3197 43.4407L60.2773 43.4159L59.3376 45.5264C57.9563 44.9021 56.3454 44.5261 54.6498 44.5084H54.6427C54.5579 44.5013 54.4626 44.4977 54.3636 44.4977C53.3745 44.4977 52.4631 44.8453 51.7495 45.4271L51.7565 45.42C51.0889 45.9768 50.665 46.8104 50.6614 47.7432C50.6614 49.1975 51.693 50.446 53.6006 51.5101C55.3351 52.4643 58.8395 54.479 58.8395 54.479C60.5634 55.497 61.7045 57.3485 61.7045 59.4696C61.7045 59.5334 61.7045 59.6008 61.7009 59.6647V59.654L61.6797 59.6469ZM68.9994 61.5304C68.035 59.5973 67.4733 57.3201 67.4733 54.9117C67.4733 54.5322 67.4874 54.1562 67.5157 53.7873L67.5121 53.837C67.5121 47.6628 69.3809 44.5746 73.1184 44.5722C73.2103 44.5651 73.3198 44.5616 73.4328 44.5616C75.1108 44.5616 76.5839 45.4412 77.4212 46.7678L77.4318 46.7856C78.3891 48.708 78.9508 50.9781 78.9508 53.3759C78.9508 53.7447 78.9367 54.1101 78.9119 54.4719L78.9155 54.4222C78.9155 60.646 77.0467 63.7603 73.3092 63.765C73.2138 63.7721 73.1043 63.7756 72.9948 63.7756C71.3168 63.7756 69.8401 62.896 69.0029 61.5694L68.9923 61.5517L68.9994 61.5304ZM83.5326 67.0353L79.0462 64.8185C79.456 64.4744 79.8234 64.1126 80.1625 63.7224L80.1731 63.7118C81.9853 61.2573 83.0734 58.1678 83.0734 54.8266C83.0734 54.44 83.0593 54.0569 83.031 53.6774L83.0345 53.727C83.0345 45.6162 79.8634 41.5585 73.5211 41.5537C73.3798 41.5466 73.2138 41.5431 73.0478 41.5431C70.3382 41.5431 67.9042 42.7384 66.2474 44.6361L66.2404 44.6467C64.4352 47.1012 63.3507 50.1871 63.3507 53.5284C63.3507 53.9044 63.3648 54.2768 63.3931 54.6457L63.3895 54.596C63.3577 54.9543 63.3401 55.3728 63.3401 55.7949C63.3401 58.895 64.308 61.768 65.9542 64.1268L65.9224 64.0807C67.5086 65.7761 69.7589 66.8332 72.2494 66.8332C72.4825 66.8332 72.7122 66.8225 72.9383 66.8048L72.9065 66.8083C72.9383 66.8083 72.9806 66.8083 73.0195 66.8083C74.1182 66.8083 75.1815 66.6487 76.1883 66.3543L76.1106 66.3756L81.9606 69.7984L83.5503 67.0424L83.5326 67.0353ZM98.186 66.4359H86.5742V41.9262H90.4813V63.4245H98.186V66.4359ZM43.7799 48.3533C42.766 55.7453 40.445 62.4171 37.0502 68.3938L37.1915 68.1207C35.8314 70.749 33.2597 72.5793 30.2393 72.8737L30.2039 72.8772C29.289 72.8276 28.4376 72.6076 27.664 72.2494L27.7063 72.2671V70.0786C28.1903 70.1531 28.7485 70.1957 29.3172 70.1957C29.349 70.1957 29.3808 70.1957 29.4161 70.1957C29.4727 70.1992 29.5327 70.1992 29.5963 70.1992C30.6172 70.1992 31.5534 69.8268 32.274 69.2061L32.267 69.2096C33.0442 68.5676 33.5423 67.6099 33.5705 66.5317C33.3833 64.9781 33.0265 63.5593 32.5143 62.2221L32.5567 62.3427L28.0808 48.3533H32.0974L35.3086 58.8134C35.8809 60.2889 36.2129 61.9986 36.2129 63.7827C36.2129 63.7863 36.2129 63.7898 36.2129 63.7898C37.9157 59.3135 39.2086 54.0924 39.8657 48.6761L39.8975 48.3498L43.7799 48.3533ZM26.046 66.4359H21.9552C21.8398 59.9071 21.443 53.3912 20.7647 46.8884H20.7294L14.5049 66.4359H11.3926L5.21051 46.8884H5.16811C4.68532 53.3936 4.398 59.9094 4.30615 66.4359H0.575684C0.818258 57.7221 1.42116 49.551 2.38439 41.9226H7.4608L13.3532 59.9378H13.3886L19.334 41.9226H24.1666C25.2359 50.854 25.8658 59.025 26.0566 66.4359H26.046ZM72.9948 7.95664C72.9877 7.95664 72.9771 7.95664 72.9665 7.95664C72.5461 7.95664 72.1399 8.00984 71.7513 8.10916L71.7866 8.10206V8.15881H71.8467C72.1505 8.61283 72.4613 9.00655 72.7969 9.37543L72.7899 9.36834C73.0266 9.84364 73.2315 10.3154 73.4681 10.7871L73.5282 10.7197C73.9133 10.4147 74.157 9.9465 74.157 9.42154C74.157 9.3577 74.1535 9.2974 74.1464 9.23355V9.24065C73.9698 9.03137 73.9451 8.82565 73.7932 8.61992C73.6165 8.32197 73.2385 8.17655 72.9983 7.94245L72.9948 7.95664Z" fill="black"/>
</svg>
