<svg width="75" height="74" viewBox="0 0 75 74" fill="none" xmlns="http://www.w3.org/2000/svg">
<path d="M35.044 0.0199137C34.8827 0.0343788 34.3695 0.0850067 33.9076 0.12117C23.2551 1.06864 13.2771 6.73897 6.95748 15.4542C3.43842 20.3 1.18768 25.7968 0.337243 31.619C0.0366569 33.6513 0 34.2516 0 37.0072C0 39.7629 0.0366569 40.3632 0.337243 42.3955C2.37537 56.2893 12.3974 67.9626 25.9897 72.2877C28.4238 73.0616 30.9897 73.5896 33.9076 73.9078C35.044 74.0307 39.956 74.0307 41.0924 73.9078C46.129 73.3581 50.3959 72.1286 54.6041 70.0094C55.2493 69.684 55.3739 69.5972 55.2859 69.5249C55.2273 69.4815 52.478 65.8435 49.1789 61.4461L43.1818 53.4541L35.6672 42.4823C31.5323 36.4503 28.1305 31.5177 28.1012 31.5177C28.0718 31.5105 28.0425 36.3852 28.0279 42.3376C28.0059 52.7598 27.9985 53.1793 27.8666 53.4252C27.676 53.7796 27.5293 53.9242 27.2214 54.0833C26.9868 54.1991 26.7815 54.2207 25.6745 54.2207H24.4062L24.0689 54.011C23.849 53.8736 23.6877 53.6928 23.5777 53.483L23.4238 53.1576L23.4384 38.6563L23.4604 24.1477L23.6877 23.8657C23.805 23.7138 24.0543 23.5185 24.2302 23.4245C24.5308 23.2798 24.6481 23.2654 25.9164 23.2654C27.412 23.2654 27.6613 23.3232 28.0499 23.7427C28.1598 23.8584 32.2287 29.9049 37.0968 37.1881C41.9648 44.4713 48.6217 54.416 51.8915 59.298L57.8299 68.1724L58.1305 67.9771C60.7918 66.2702 63.607 63.8401 65.8358 61.3087C70.5792 55.9349 73.6364 49.3822 74.6628 42.3955C74.9633 40.3632 75 39.7629 75 37.0072C75 34.2516 74.9633 33.6513 74.6628 31.619C72.6246 17.7252 62.6026 6.05187 49.0103 1.7268C46.6129 0.960147 44.0616 0.43217 41.2023 0.113937C40.4985 0.0416114 35.6525 -0.0379468 35.044 0.0199137ZM50.3959 22.3975C50.7478 22.571 51.0337 22.9037 51.1364 23.2509C51.195 23.439 51.2097 27.4603 51.195 36.5227L51.173 49.5268L48.849 46.0118L46.5176 42.4968V33.0438C46.5176 26.9323 46.5469 23.4968 46.5909 23.3305C46.7082 22.9254 46.9648 22.6072 47.3167 22.4192C47.6173 22.2673 47.7273 22.2528 48.8783 22.2528C49.9633 22.2528 50.154 22.2673 50.3959 22.3975Z" fill="black"/>
</svg>
