<svg width="75" height="80" viewBox="0 0 75 80" fill="none" xmlns="http://www.w3.org/2000/svg">
<path d="M40.567 0.848394C38.5511 -0.285339 35.9229 -0.280255 33.9053 0.848394C23.8003 6.42504 13.695 12.0034 3.58814 17.5775C1.62147 18.6121 0.295009 20.724 0.316167 22.9161V56.6108C0.301967 58.8457 1.69682 60.978 3.71421 61.9985C6.61723 63.5429 9.43769 65.2441 12.3932 66.6857C15.8072 68.3634 20.0784 68.7343 23.5342 66.9848C26.3393 65.5349 27.5853 62.31 27.5816 59.3464C27.6043 48.2263 27.5853 37.106 27.5904 25.9856C27.6571 25.4915 27.2859 24.9632 26.7469 24.9751C25.4555 24.9547 24.1624 24.9632 22.871 24.9717C22.3831 24.9257 21.9068 25.331 21.9437 25.8215C21.9264 36.87 21.9471 47.9219 21.9332 58.9721C21.9613 60.5006 20.9287 61.9695 19.4556 62.4858C16.0534 63.6784 6.34251 57.3731 6.34251 57.3731C5.98614 57.2081 5.75984 56.8216 5.79477 56.4376C5.79477 45.3209 5.79651 34.204 5.79477 23.089C5.74578 22.6409 6.02198 22.2373 6.43351 22.0543C16.5053 16.5105 26.5719 10.9529 36.6437 5.40571C36.9936 5.17222 37.4812 5.17293 37.8303 5.40741C47.9021 10.9529 57.9705 16.5055 68.044 22.0495C68.4569 22.2322 68.7213 22.6426 68.6793 23.089C68.6776 34.204 68.6827 45.3209 68.6759 56.4362C68.7057 56.8295 68.5023 57.2106 68.1351 57.3833C58.1573 62.8971 48.0659 68.233 38.1785 73.9069C37.7471 74.1543 37.2583 74.4346 36.7749 74.162C34.1748 72.7238 31.6062 71.2296 29.0147 69.7775C28.7329 69.6016 28.3742 69.5261 28.0803 69.7229C26.9184 70.3352 25.8255 70.8311 24.4913 71.3594C22.6174 72.1012 22.9167 72.4045 24.6069 73.3892C27.6375 75.1043 30.6733 76.8126 33.7039 78.5295C35.6991 79.7745 38.3798 79.8632 40.4392 78.7126C50.5459 73.1429 60.6495 67.5667 70.7582 61.997C72.7701 60.9709 74.172 58.8471 74.1578 56.6105V22.9161C74.1774 20.7685 72.9016 18.6942 70.9942 17.6443C60.854 12.0405 50.7089 6.44881 40.567 0.848394Z" fill="#8CC84B"/>
<path d="M55.8166 26.1465C51.8499 24.0244 47.1308 23.9113 42.7227 24.1888C39.5381 24.5035 36.1888 25.3822 33.8687 27.6651C31.489 29.9598 30.971 33.6656 32.1013 36.6613C32.9113 38.7783 34.9502 40.1549 37.0587 40.8831C39.7747 41.8419 42.6272 42.1384 45.4807 42.4349C48.0833 42.7053 50.6868 42.9759 53.1884 43.7493C54.2102 44.0878 55.4002 44.6059 55.7132 45.7178C56.0023 47.0344 55.6854 48.5649 54.6164 49.4797C51.2208 52.1673 41.7752 51.7555 38.4202 49.6402C37.0638 48.739 36.4793 47.1438 36.2416 45.6235C36.2152 45.1497 35.8338 44.7152 35.3194 44.7513C34.0315 44.7359 32.7435 44.7394 31.4555 44.7496C31.0062 44.7118 30.539 45.0316 30.5143 45.4903C30.2496 52.4533 36.6446 55.4888 42.6443 56.1571C46.072 56.4837 49.5749 56.4649 52.9504 55.7293C55.4877 55.1517 58.0319 54.0878 59.7785 52.1335C61.9324 49.7584 62.3559 46.2222 61.39 43.2636C60.6516 41.0561 58.5411 39.64 56.3838 38.9115C53.45 37.9055 49.9731 37.3648 47.3159 37.1117C43.4537 36.744 38.8641 36.8942 37.771 34.3563C37.335 33.0274 37.706 31.3773 38.9272 30.56C42.1584 28.3683 48.7346 28.6594 52.0807 30.2967C53.6172 31.0661 54.5076 32.6463 54.8751 34.2416C54.9433 34.7102 55.2585 35.1992 55.801 35.1788C57.0801 35.2043 58.3593 35.1856 59.6382 35.1873C60.0776 35.218 60.5587 34.97 60.6445 34.5202C60.5902 31.1859 58.8876 27.7727 55.8166 26.1465Z" fill="#8CC84B"/>
</svg>
