<svg xmlns="http://www.w3.org/2000/svg" xmlns:xlink="http://www.w3.org/1999/xlink" viewBox="0 0 51.48 65.72"><defs><style>.cls-1{fill:#fff;}.cls-2{mask:url(#mask);}.cls-3{fill:#1d427c;}.cls-4{fill:#ec8023;}.cls-5{fill:#f19320;}</style><mask id="mask" x="0" y="-1.19" width="146.41" height="67.03" maskUnits="userSpaceOnUse"><g id="mask0_15_354" data-name="mask0 15 354"><path class="cls-1" d="M0-1.19H146.41v67H0Z"/></g></mask></defs><g id="Layer_2" data-name="Layer 2"><g id="Layer_1-2" data-name="Layer 1"><g class="cls-2"><path class="cls-3" d="M51.48,31.57V0H0V31.83c0,1.5.32,9.39,6.67,19.38A36.15,36.15,0,0,0,25.55,65.67l.17,0,.17,0A36.22,36.22,0,0,0,44.81,51.21C51.73,40.32,51.49,31.92,51.48,31.57Z"/></g><g class="cls-2"><path class="cls-4" d="M24.11,3.79a30.84,30.84,0,0,0-4.69-.38,13.39,13.39,0,0,0-4.56.9,13.26,13.26,0,0,0-4.55-.9,30.67,30.67,0,0,0-4.69.38l-.28.06V17.16l.41-.09a21.69,21.69,0,0,1,4.31-.38,15.7,15.7,0,0,1,4.69.82l.11,0,.12,0a15.64,15.64,0,0,1,4.69-.82,21.52,21.52,0,0,1,4.3.38l.42.09V3.85Z"/></g><g class="cls-2"><path class="cls-1" d="M14.54,4.92a12.81,12.81,0,0,0-4.22-.81A29.39,29.39,0,0,0,6,4.44V14.5a25.14,25.14,0,0,1,4-.31,15.87,15.87,0,0,1,4.47.71Zm4.9-.81a12.46,12.46,0,0,0-4.25.83v10a15.87,15.87,0,0,1,4.5-.72,25.14,25.14,0,0,1,4,.31V4.44A29.39,29.39,0,0,0,19.44,4.11Z"/></g><g class="cls-2"><path class="cls-3" d="M7.94,5.79a.39.39,0,0,0-.31.51.47.47,0,0,0,.58.26,16.47,16.47,0,0,1,2.38-.23,6.55,6.55,0,0,1,2.12.46.49.49,0,0,0,.6-.24A.39.39,0,0,0,13,6a7.49,7.49,0,0,0-2.44-.51A15.14,15.14,0,0,0,7.94,5.79Zm0,2a.39.39,0,0,0-.31.51.47.47,0,0,0,.58.26,16.47,16.47,0,0,1,2.38-.23,6.55,6.55,0,0,1,2.12.46.5.5,0,0,0,.6-.24A.39.39,0,0,0,13,8a7.49,7.49,0,0,0-2.44-.51A15.14,15.14,0,0,0,7.94,7.79Zm0,2a.39.39,0,0,0-.31.5.47.47,0,0,0,.58.27,16.47,16.47,0,0,1,2.38-.23,7,7,0,0,1,2.12.45.48.48,0,0,0,.6-.23A.39.39,0,0,0,13,10a7.49,7.49,0,0,0-2.44-.51A15.14,15.14,0,0,0,7.94,9.79Zm0,2a.39.39,0,0,0-.31.5.47.47,0,0,0,.58.27,16.47,16.47,0,0,1,2.38-.23,7,7,0,0,1,2.12.45.48.48,0,0,0,.6-.23A.39.39,0,0,0,13,12a7.49,7.49,0,0,0-2.44-.51A15.14,15.14,0,0,0,7.94,11.79Zm13.92-6a.4.4,0,0,1,.31.51.49.49,0,0,1-.59.26,16.28,16.28,0,0,0-2.38-.23,6.38,6.38,0,0,0-2.11.46.49.49,0,0,1-.6-.24A.39.39,0,0,1,16.76,6a7.64,7.64,0,0,1,2.44-.51A15.32,15.32,0,0,1,21.86,5.79Zm0,2a.4.4,0,0,1,.31.51.49.49,0,0,1-.59.26,16.28,16.28,0,0,0-2.38-.23,6.38,6.38,0,0,0-2.11.46.5.5,0,0,1-.6-.24A.39.39,0,0,1,16.76,8a7.64,7.64,0,0,1,2.44-.51A15.32,15.32,0,0,1,21.86,7.79Zm0,2a.39.39,0,0,1,.31.5.48.48,0,0,1-.59.27,16.28,16.28,0,0,0-2.38-.23,6.8,6.8,0,0,0-2.11.45.48.48,0,0,1-.6-.23.39.39,0,0,1,.27-.52,7.64,7.64,0,0,1,2.44-.51A15.32,15.32,0,0,1,21.86,9.79Zm0,2a.39.39,0,0,1,.31.5.48.48,0,0,1-.59.27,16.28,16.28,0,0,0-2.38-.23,6.8,6.8,0,0,0-2.11.45.48.48,0,0,1-.6-.23.39.39,0,0,1,.27-.52,7.64,7.64,0,0,1,2.44-.51A15.32,15.32,0,0,1,21.86,11.79Z"/></g><g class="cls-2"><path class="cls-1" d="M43.78,50.49c-6.24,9.82-16.59,13.41-18,13.87-1.43-.46-11.75-4-18-13.87S1.29,32.76,1.29,31.68V20.38h49V31.67C50.26,32.77,50,40.65,43.78,50.49Z"/></g><g class="cls-2"><path class="cls-3" d="M48,29.44a2.41,2.41,0,0,0-1.34-1.66c-1.71-.9-3.93-.27-5.89.39a15.73,15.73,0,0,1-3.59.92c-1.27.19-5.49.74-6.82-.37A1.31,1.31,0,0,1,29.9,28a2,2,0,0,1,.33-1.18c.34-.37,1.13-.55,2.41-.55l3.27.06a3.42,3.42,0,0,0,2.06,1A9.87,9.87,0,0,0,42.4,27a1.88,1.88,0,0,1-.7-.31.62.62,0,0,1-.26-.53,2.69,2.69,0,0,0,1.14.2c.85,0,1.24-.42,2-.62a4.47,4.47,0,0,1,1.66,0,3.65,3.65,0,0,0-1.58-1,5.44,5.44,0,0,0-1.77.05,2.54,2.54,0,0,0,.54-.37,1.09,1.09,0,0,0,.28-.58,5.19,5.19,0,0,1-1.9.32,16.82,16.82,0,0,0-2.75-.45A4.8,4.8,0,0,0,36,24.88c-1.51-.1-2.69-.15-3.39-.15-1.91,0-3,.31-3.7,1.05a2.93,2.93,0,0,0-.72,2.36,2.61,2.61,0,0,0,1,1.85c1.79,1.47,6.58,1,8.28.72a20.46,20.46,0,0,0,3.56-.84l.07,0c.85-.29,3.44-1.15,4.52-.58a1,1,0,0,1,.47.67,1.56,1.56,0,0,1,.06.41.88.88,0,0,1-.21.58c-1,1.21-4.71,1.42-6.32,1.5a13.21,13.21,0,0,0-2.7-.29c-1,0-1.76.06-2.61.12a26.72,26.72,0,0,1-5.83-.07,20.1,20.1,0,0,1-3.27-.62,1.84,1.84,0,0,0-.52-1c.64.21,1.47-.5,1.7-.85,0,0-1.13-.33-1.2-1.06,0,0,.8.06,1.14-1-.81-.43-.56-.6-.94-1.14a1.66,1.66,0,0,0-1.44-.7,1.12,1.12,0,0,0,.54-.13c.34-.18.59-.66.93-.64-.7-1.09-2.57-1.23-3.35-1,.2-.25.51-.53.51-.87-1,.29-2.05-.25-3.1-.05a1.82,1.82,0,0,0-1.63,1.33h0a1.84,1.84,0,0,0-1.64-1.33c-1-.2-2.06.34-3.1.05,0,.34.32.62.51.87-.77-.23-2.65-.09-3.35,1,.35,0,.59.46.94.64a1,1,0,0,0,.53.13,1.68,1.68,0,0,0-1.44.7c-.38.54-.13.71-.93,1.14a1.25,1.25,0,0,0,1.14,1c-.07.73-1.21,1-1.21,1.06.24.35,1.07,1.06,1.71.85a1.67,1.67,0,0,0-.5,1.63,11.67,11.67,0,0,1-2.05-1.87,18.2,18.2,0,0,1-.63-1.89l-.17-.57-.09-.3c-.25-.94-.5-1.73-.93-1.83A2.18,2.18,0,0,0,6,25.66a1.25,1.25,0,0,0-.59-.55,1.11,1.11,0,0,0-.73,0,1.87,1.87,0,0,1,.53.59.58.58,0,0,1,.07.21L5,26l0,0-.2.16-.1,0a1.1,1.1,0,0,0-.73.08,2.3,2.3,0,0,1,.48.33,1.69,1.69,0,0,0-.32,1v.12a1.15,1.15,0,0,0-.67.21,1.93,1.93,0,0,1,.71.36l.07.08,0,0a.84.84,0,0,0-.14.51,1.75,1.75,0,0,0,.57,1.2l1,.79a8,8,0,0,0,1,1.75c.08.1.61,1,1.18,2L8,35c.12.6.26,1.35.32,1.94a13.32,13.32,0,0,1,0,2.24,1.46,1.46,0,0,0,1-.48,4.53,4.53,0,0,1,.22,1.57,12.62,12.62,0,0,1-.2,1.48,7.63,7.63,0,0,0,1.18-.8,4.19,4.19,0,0,0,.66-.84c.55.35,2.14-.21,2.93-.52a6.57,6.57,0,0,0,.65,1.05c.12-.47.63-.71.86-1.09h.21a3.56,3.56,0,0,0,.37,2,11,11,0,0,0,1.32,1.81c-.19.88-.54,2.48-.91,3.79a12.5,12.5,0,0,1-1,2.59c-.56,0-1.6.06-1.92,0a2.21,2.21,0,0,0-1.73.48l-.07.09a1.22,1.22,0,0,0-.76.31,1.13,1.13,0,0,0-.34.65,1.84,1.84,0,0,1,.75-.25h.07v.07a.86.86,0,0,0,.12.34.58.58,0,0,0-.14.13,1.11,1.11,0,0,0-.3.68,2,2,0,0,1,.72-.3c.1.16.22.33.34.49l0,0a1.09,1.09,0,0,0-.25.69,2.11,2.11,0,0,1,.62-.33,3,3,0,0,0,.3.31c.47.41,1.64.14,3.13-.25l.92-.23a1.83,1.83,0,0,0,1.36-.87,3.28,3.28,0,0,0,.23-.6l.09-.26a6.8,6.8,0,0,1,.77-1.6l.95-1.54c.49-.4,1.06-.86,1.49-1.15.64-.43,1.92-1.09,1.92-1.09A1.45,1.45,0,0,0,23,45a4.54,4.54,0,0,1,1.2-.9,7,7,0,0,1,1.42-.42,2.51,2.51,0,0,0-.74-.89,2.31,2.31,0,0,0,.57-.31A2.92,2.92,0,0,1,28.11,42a1,1,0,0,0-.51-1.07,6.57,6.57,0,0,1,1.11-.37c.25.42.52.89.65,1.07a22.24,22.24,0,0,0,2.08,2.55.22.22,0,0,1,0,.1,6.58,6.58,0,0,1-.55,1.51l-.17.39s-.68,1.61-.88,2.07c-.39,0-1.55.09-1.95.07a2.14,2.14,0,0,0-1.68.47.53.53,0,0,0-.12.14,1.3,1.3,0,0,0-.8.37A1.1,1.1,0,0,0,25,50a1.91,1.91,0,0,1,.73-.29h.15A1.18,1.18,0,0,0,26,50a.85.85,0,0,0-.19.19,1.21,1.21,0,0,0-.25.7,2,2,0,0,1,.71-.36h0c.07.12.16.24.24.36l-.08.1a1.17,1.17,0,0,0-.25.69,2.12,2.12,0,0,1,.69-.35,2.81,2.81,0,0,0,.29.3c.45.39,1.41.16,2.73-.22l.94-.25a1.77,1.77,0,0,0,1.32-.84l.24-.53a6.39,6.39,0,0,1,.35-.73,9,9,0,0,0,.48-.84c.18-.17.38-.32.57-.48a17.2,17.2,0,0,1,1.48-.9.89.89,0,0,0-.64-.51,4.11,4.11,0,0,1,.93-.78,4.29,4.29,0,0,1,1.09-.33,4.38,4.38,0,0,0-.88-.59,2.65,2.65,0,0,0-.54-.15,1.81,1.81,0,0,0-.34-.77c-.38-.58.17-1.82.56-2.53a15,15,0,0,0,1.14,1.4L39,45.14a24.24,24.24,0,0,1-.77,2.51,19.55,19.55,0,0,1-1,2.12c-.46,0-1.5.08-1.88.06a2.11,2.11,0,0,0-1.68.48.65.65,0,0,0-.15.18,1.25,1.25,0,0,0-.68.36,1.11,1.11,0,0,0-.29.67,1.23,1.23,0,0,1,.73-.3h.05a1.68,1.68,0,0,0,.14.35.66.66,0,0,0-.18.19,1.09,1.09,0,0,0-.25.69,1.84,1.84,0,0,1,.71-.35h0l.32.46h0a1.11,1.11,0,0,0-.25.7,2,2,0,0,1,.57-.32l.24.24c.45.4,1.42.16,2.74-.22l.93-.24a1.78,1.78,0,0,0,1.32-.85c.13-.21.71-1.55.86-1.94.29-.7.6-1.4.92-2.08.16-.13.3-.25.42-.33.52-.36,1.63-1,1.63-1a.9.9,0,0,0-.65-.51,5.71,5.71,0,0,1,.88-.71,4.27,4.27,0,0,1,1.15-.41,6.77,6.77,0,0,0-.91-.57,4.33,4.33,0,0,0-.77-.19.69.69,0,0,0-.46-.54,2.74,2.74,0,0,1-1-.78,5.38,5.38,0,0,1-.65-3.22V37.52a11.93,11.93,0,0,0-.45-3.11c1.88-.17,5.33-.55,6.74-2.27a2.8,2.8,0,0,0,.64-1.79A3.45,3.45,0,0,0,48,29.44Z"/></g><g class="cls-2"><path class="cls-5" d="M34.45,45.11c.25-.23.38-.36.38-.52a1.29,1.29,0,0,0-.28-.6,1.39,1.39,0,0,1-.2-.76,5.59,5.59,0,0,1,.86-2.44c-.07-.09-.17-.21-.29-.38l-.15-.11a4.31,4.31,0,0,1-.82-.78l-.11-.17a9.53,9.53,0,0,0-3,.33.92.92,0,0,1,.49.88,5.89,5.89,0,0,0-2.14-.1c.22.38.44.75.54.9a22.26,22.26,0,0,0,2,2.49.6.6,0,0,1,.15.42A5.24,5.24,0,0,1,31.34,46l-.16.39-1,2.33H30c-.07,0-1.64.1-2.15.08a1.91,1.91,0,0,0-1.25.27.7.7,0,0,1,0,.38.48.48,0,0,1-.25.31l0,.08a3.31,3.31,0,0,1,.6-.13.63.63,0,0,1,.1.5.6.6,0,0,1-.23.38l.07.09a3,3,0,0,1,.72-.18.84.84,0,0,1,.12.57.46.46,0,0,1-.18.3A6,6,0,0,0,29.82,51l1-.26a1.3,1.3,0,0,0,1-.63l.22-.47a5.44,5.44,0,0,1,.39-.8c.3-.47.64-1.17,1-1.84A8.91,8.91,0,0,1,34.45,45.11Zm-18.72-6v0h0S15.73,39.09,15.73,39.08Z"/></g><g class="cls-2"><path class="cls-4" d="M13.71,36.38a2,2,0,0,1-1.57.76,2.6,2.6,0,0,0-.25-1.76c-.23-.5-.86-1.47-1-2,0-.16-.1-.3-.15-.44a13.74,13.74,0,0,1-2.63-2.33,11.76,11.76,0,0,1-.71-2L7.19,28l-.09-.32c-.25-.92-.45-1.43-.59-1.49a1.28,1.28,0,0,0-.27-.05h0s0,.28-.52.26a.71.71,0,0,1-.28-.09l-.11.08,0,0-.07.06a3.26,3.26,0,0,1,.48.58.63.63,0,0,1-.47.36.57.57,0,0,1-.46-.14.83.83,0,0,0,0-.22,1.08,1.08,0,0,0-.1.75,2.81,2.81,0,0,1,.68.53s0,.28-.38.47a.44.44,0,0,1-.39,0,1.17,1.17,0,0,0,.4.95l1,.85,0,.05a8.22,8.22,0,0,0,.93,1.68c.08.09.39.61,1.24,2.08,1.13,1.94,2.83,4.87,3.27,5.35a5.12,5.12,0,0,0,2.48-.57C13.51,38.05,13.87,37.36,13.71,36.38ZM47.5,29.56a1.93,1.93,0,0,0-1.11-1.37c-1.54-.81-3.65-.21-5.51.43a16.84,16.84,0,0,1-3.68.93c-1.68.25-5.74.73-7.19-.47a1.75,1.75,0,0,1-.57-1,2.37,2.37,0,0,1,.45-1.54c.44-.48,1.29-.7,2.75-.7l3.41.05.25-.22-.25-.27c-1.51-.1-2.7-.16-3.4-.16-1.77,0-2.77.27-3.35.9a2.52,2.52,0,0,0-.6,2,2.14,2.14,0,0,0,.81,1.53c1.52,1.26,6,1,7.9.62a20.09,20.09,0,0,0,3.5-.82l.06,0c1-.34,3.63-1.22,4.9-.55a1.46,1.46,0,0,1,.7,1,1.49,1.49,0,0,1-.24,1.42c-1.13,1.37-4.75,1.56-6.69,1.67h-.08a13.12,13.12,0,0,0-2.62-.28c-.93,0-1.73,0-2.57.11a27.42,27.42,0,0,1-5.92-.06,21.29,21.29,0,0,1-3.22-.61,9.42,9.42,0,0,1-.38,1.31c-.19.55-.82,1.52-1.05,2a2.66,2.66,0,0,0-.25,1.76A2.08,2.08,0,0,1,22,36.38c-.21,1.34.55,2.14-1,4.29-.16-.65-1.06-.86-1-1.59-.28.76.17,1.21-.47,2.47a10,10,0,0,1-1.53,2c-.2.91-.54,2.44-.89,3.7A11.46,11.46,0,0,1,16,50.09l-.06.1h-.12c-.52,0-1.72.07-2.1,0a2.21,2.21,0,0,0-1.22.23.67.67,0,0,1,0,.46.66.66,0,0,1-.3.26l0,.1a3,3,0,0,1,.68-.11.8.8,0,0,1,0,.64.5.5,0,0,1-.21.25,1.71,1.71,0,0,1,.11.14,3.14,3.14,0,0,1,.79-.21.82.82,0,0,1,0,.66.31.31,0,0,1-.17.24A7.49,7.49,0,0,0,16,52.5l1-.23a1.36,1.36,0,0,0,1-.66,5.08,5.08,0,0,0,.19-.5l.09-.27a7.41,7.41,0,0,1,.82-1.69c1-1.57,3.87-6.29,4-6.67v-.07a5.69,5.69,0,0,0-.22-1.16L22.84,41l9.91-2.9-.57-1,.34-.3a10.57,10.57,0,0,1,1.14.94,7.89,7.89,0,0,1,1,1.45l.18.29c.4.63.8,1.1.8,1.11l0,0h0A11.27,11.27,0,0,0,37,42.3L39.49,45l0,.12a25.63,25.63,0,0,1-.81,2.68,20.19,20.19,0,0,1-1,2.29l-.06.12h-.13c-.48,0-1.63.09-2.06.07a2,2,0,0,0-1.2.23.69.69,0,0,1,0,.47.81.81,0,0,1-.27.3l0,.06a3.32,3.32,0,0,1,.61-.13.91.91,0,0,1,.1.56.46.46,0,0,1-.22.34.94.94,0,0,0,.09.12,2.74,2.74,0,0,1,.83-.22.77.77,0,0,1,.11.55.55.55,0,0,1-.22.32,7.38,7.38,0,0,0,2.07-.4l1-.26a1.3,1.3,0,0,0,1-.63c.1-.15.63-1.38.83-1.87a41.83,41.83,0,0,1,2-4.24l.31-.49c.19-.28.35-.51.33-.67s0-.23-.23-.33a3.21,3.21,0,0,1-1.09-.89c-.81-.95-.79-2.77-.76-4.38V37.53a10.89,10.89,0,0,0-.51-3.25L40.08,34l.3,0c1.73-.15,5.34-.47,6.7-2.13A2.47,2.47,0,0,0,47.5,29.56Z"/></g><g class="cls-2"><path class="cls-1" d="M38.13,10.88a3.44,3.44,0,0,1,.5.87,2.74,2.74,0,0,1-.5,0,4.07,4.07,0,0,1-.5,0A4,4,0,0,1,38.13,10.88Z"/></g><g class="cls-2"><path class="cls-4" d="M36.05,10.78a3.46,3.46,0,0,1-.92-1.06h0A3.43,3.43,0,0,1,36.5,10,5,5,0,0,0,36.05,10.78Zm-3-.35A5.6,5.6,0,0,0,35.52,13c0,.06,0,.12,0,.18a5.57,5.57,0,0,0,1,3.17,3.44,3.44,0,0,1-4.8-3.17A3.41,3.41,0,0,1,33.07,10.43Zm8-.71h0a3.31,3.31,0,0,1-.92,1,4.51,4.51,0,0,0-.44-.77A3.46,3.46,0,0,1,41.11,9.72Zm-6-2.15-.44,0a3.45,3.45,0,0,1,6.84,0l-.44,0a5.56,5.56,0,0,0-3,.86A5.56,5.56,0,0,0,35.15,7.57ZM40.75,13a5.6,5.6,0,0,0,2.44-2.56,3.42,3.42,0,0,1,1.37,2.74,3.46,3.46,0,0,1-3.45,3.45,3.31,3.31,0,0,1-1.34-.28,5.58,5.58,0,0,0,1-3.17Zm-3,.62.43,0,.43,0a3.19,3.19,0,0,1-.43,1.27A3.41,3.41,0,0,1,37.7,13.6Zm6-5.39V8a5.6,5.6,0,1,0-11.2,0v.18a5.59,5.59,0,1,0,5.59,9.68,5.6,5.6,0,1,0,5.6-9.69Z"/></g><g class="cls-2"><path class="cls-1" d="M39.2,13.55a5.88,5.88,0,0,0,.91-.26,4.85,4.85,0,0,1-.91,2.77,3.53,3.53,0,0,1-.68-.6A4.07,4.07,0,0,0,39.2,13.55ZM38.13,3.1a5,5,0,1,1,0,9.94l-.45,0a3.26,3.26,0,0,1,.16-.88l.29,0a4.07,4.07,0,0,0,0-8.14,4,4,0,0,0-4.05,3.71,6,6,0,0,0-.92.26A5,5,0,0,1,38.13,3.1Z"/></g><g class="cls-2"><path class="cls-1" d="M41.11,8.23l.46,0a3.42,3.42,0,0,1-.17.89l-.29,0a4.13,4.13,0,0,0-1.73.39,5.38,5.38,0,0,0-.69-.66A4.81,4.81,0,0,1,41.11,8.23Zm-6,9.94a5,5,0,1,1,4.53-7,3.25,3.25,0,0,1-.86.3,4.08,4.08,0,0,0-1.5-1.69,4,4,0,0,0-2.17-.62,4.07,4.07,0,1,0,0,8.14,4.18,4.18,0,0,0,1.74-.4,5.38,5.38,0,0,0,.69.66A4.93,4.93,0,0,1,35.15,18.17Z"/></g><g class="cls-2"><path class="cls-1" d="M34.46,9.82a4.13,4.13,0,0,0,1.34,1.59,5.86,5.86,0,0,0-.22.92,4.94,4.94,0,0,1-2-2.21A3.65,3.65,0,0,1,34.46,9.82Zm6.65,8.35a5,5,0,0,1-5-5,4.88,4.88,0,0,1,.92-2.87,3.17,3.17,0,0,1,.68.59A4,4,0,0,0,37,13.2a4.08,4.08,0,1,0,6.39-3.34,5.75,5.75,0,0,0,.23-.93,5,5,0,0,1-2.55,9.24Z"/></g><g class="cls-2"><path class="cls-4" d="M21.53,28c.3-.2,1-.79.63-1.49s-1.32-.45-1.59-.34c0,0-2.07-.92-2.09-.9s-.79.94-.79.94-.81-.95-.79-.94-2.06.87-2.1.9c-.27-.11-1.18-.41-1.58.34s.32,1.29.62,1.49v0l-.65,1.15s1.91,2.3,1.91,2.3V33s.76.51.82.52a6.71,6.71,0,0,0,.29,1.18,3.12,3.12,0,0,0,1.47.32h.06a3.11,3.11,0,0,0,1.46-.32,5.29,5.29,0,0,0,.29-1.18c.06,0,.81-.52.81-.52v-1.5s1.9-2.32,1.91-2.3S21.54,28,21.54,28Z"/></g><g class="cls-2"><path class="cls-3" d="M15,28.12l1.76,0-.06,1Zm4,1,.27,2.36-1.3.71c0,.06,0,.78,0,.84a3.06,3.06,0,0,0,.51.31,1.47,1.47,0,0,0,.85.07l.1,0-.09.32h0a2.06,2.06,0,0,1-.87,0,1.59,1.59,0,0,1-.56-.27h-.2a1.69,1.69,0,0,1-.57.27,2.06,2.06,0,0,1-.87,0h0L16,33.37l.1,0a1.47,1.47,0,0,0,.85-.07,3.06,3.06,0,0,0,.51-.31v-.85l-1.3-.92H18.5V28.15h2.07Z"/></g></g></g></svg>