<svg width="80" height="80" viewBox="0 0 80 80" fill="none" xmlns="http://www.w3.org/2000/svg">
<path d="M62.233 79.27H17.0369C7.62668 79.27 0 71.6433 0 62.233V17.0369C0 7.62668 7.62668 0 17.0369 0H62.2345C71.6433 0 79.27 7.62668 79.27 17.0369V62.2345C79.27 71.6433 71.6433 79.27 62.233 79.27Z" fill="#393687"/>
<path d="M20.3722 57.6951H16.3186V18.2847H29.887C33.5649 18.2847 36.2955 19.429 38.0788 21.719C39.8607 24.0076 40.7531 27.0113 40.7531 30.7257C40.7531 32.0403 40.7151 33.1748 40.6405 34.1319C40.5645 35.0904 40.3308 36.291 39.9367 37.7365C39.5426 39.1806 39.0077 40.3629 38.3321 41.2835C37.6565 42.204 36.6248 43.0105 35.2356 43.7044C33.8464 44.3997 32.1954 44.7459 30.2812 44.7459H20.3722V57.6951ZM20.3722 40.8049H29.7744C31.1257 40.8049 32.27 40.5417 33.2088 40.0167C34.1462 39.4903 34.8316 38.9287 35.2638 38.3277C35.6945 37.7267 36.0323 36.8639 36.2772 35.7379C36.5207 34.6104 36.653 33.7673 36.6713 33.2029C36.6896 32.6413 36.6994 31.8334 36.6994 30.782C36.6994 25.0773 34.3151 22.2243 29.5492 22.2243H20.3722V40.8049Z" fill="#89D3FF"/>
<path d="M44.7505 50.5448L48.6915 50.3759C48.8407 51.7651 49.536 52.8447 50.7747 53.6132C52.0133 54.3831 53.4391 54.7674 55.0535 54.7674C56.6679 54.7674 58.0656 54.4014 59.2479 53.6695C60.4302 52.9376 61.0214 51.8876 61.0214 50.5181C61.0214 49.1486 60.5147 48.0592 59.5012 47.2527C58.4878 46.4461 57.2492 45.8085 55.7854 45.3384C54.3216 44.8697 52.8493 44.3729 51.3658 43.8465C49.8823 43.3215 48.5789 42.4953 47.4529 41.3692C46.0637 40.0546 45.3698 38.4515 45.3698 36.5555C45.3698 34.6596 46.1299 32.8946 47.65 31.2619C49.1701 29.6292 51.6375 28.8142 55.0535 28.8142C56.2555 28.8142 57.3801 28.955 58.4315 29.2365C59.4815 29.518 60.2332 29.791 60.6836 30.0528L61.3592 30.4455L60.0643 33.9939C58.8622 33.0565 57.2858 32.5863 55.335 32.5863C53.3828 32.5863 51.9288 32.9523 50.9717 33.6842C50.0146 34.4161 49.536 35.3451 49.536 36.4697C49.536 37.7083 50.1356 38.6851 51.3377 39.3973C52.5383 40.1109 53.8895 40.7119 55.3913 41.1989C56.8917 41.6873 58.3837 42.2306 59.8672 42.8316C61.3493 43.4327 62.6062 44.3715 63.6393 45.6467C64.6725 46.9219 65.1876 48.6109 65.1876 50.7137C65.1876 52.8166 64.3431 54.6463 62.6541 56.203C60.9651 57.7598 58.4963 58.5395 55.2505 58.5395C52.0034 58.5395 49.46 57.7696 47.6218 56.2312C45.7822 54.6928 44.8251 52.7969 44.7505 50.5448Z" fill="#89D3FF"/>
</svg>
