<svg width="81" height="81" viewBox="0 0 81 81" fill="none" xmlns="http://www.w3.org/2000/svg">
<path fill-rule="evenodd" clip-rule="evenodd" d="M31.8917 0.640381C25.5936 0.640381 20.4881 5.58385 20.4881 11.682V19.3261H40.2251V21.4495H11.7161C5.41805 21.4495 0.3125 26.393 0.3125 32.491V49.0535C0.3125 55.1515 5.41805 60.0949 11.7161 60.0949H18.2951V50.7522C18.2951 44.6542 23.4007 39.7105 29.6988 39.7105H50.7514C56.0806 39.7105 60.4005 35.5276 60.4005 30.3678V11.682C60.4005 5.58385 55.2952 0.640381 48.9971 0.640381H31.8917ZM29.2602 14.23C31.4402 14.23 33.2075 12.5188 33.2075 10.4079C33.2075 8.29706 31.4402 6.58583 29.2602 6.58583C27.0799 6.58583 25.3127 8.29706 25.3127 10.4079C25.3127 12.5188 27.0799 14.23 29.2602 14.23Z" fill="url(#paint0_linear_40_259)"/>
<path fill-rule="evenodd" clip-rule="evenodd" d="M48.9964 80.9043C55.2945 80.9043 60.4002 75.9609 60.4002 69.8629V62.2186H40.663V60.0953H69.1721C75.4702 60.0953 80.5756 55.1517 80.5756 49.0536V32.4912C80.5756 26.3932 75.4702 21.4497 69.1721 21.4497H62.5931V30.7925C62.5931 36.8908 57.4874 41.8342 51.1896 41.8342H30.1367C24.8075 41.8342 20.4875 46.0171 20.4875 51.1769V69.8629C20.4875 75.9609 25.5932 80.9043 31.891 80.9043H48.9964ZM51.6282 67.3148C49.4479 67.3148 47.6806 69.0258 47.6806 71.1368C47.6806 73.2477 49.4479 74.9587 51.6282 74.9587C53.8082 74.9587 55.5754 73.2477 55.5754 71.1368C55.5754 69.0258 53.8082 67.3148 51.6282 67.3148Z" fill="url(#paint1_linear_40_259)"/>
<defs>
<linearGradient id="paint0_linear_40_259" x1="30.3567" y1="0.640381" x2="30.3567" y2="60.0949" gradientUnits="userSpaceOnUse">
<stop stop-color="#327EBD"/>
<stop offset="1" stop-color="#1565A7"/>
</linearGradient>
<linearGradient id="paint1_linear_40_259" x1="50.5317" y1="21.4497" x2="50.5317" y2="80.9043" gradientUnits="userSpaceOnUse">
<stop stop-color="#FFDA4B"/>
<stop offset="1" stop-color="#F9C600"/>
</linearGradient>
</defs>
</svg>
