<svg xmlns="http://www.w3.org/2000/svg" viewBox="0 0 72.6 84.98"><defs><style>.cls-1{fill:#fff;}</style></defs><g id="Layer_2" data-name="Layer 2"><g id="Layer_1-2" data-name="Layer 1"><path class="cls-1" d="M63.36,66.19c-4,2.24-8,4.46-12,6.81a1,1,0,0,1-1.1.15c-.36-.21-.27-.56-.26-.89,0-4.08,0-8.15,0-12.23a1.72,1.72,0,0,1,1-1.72,72.1,72.1,0,0,0,6.68-3.79,5,5,0,0,0,2-4.33c0-2.9-.12-5.8-.1-8.69,0-3.9.22-7.79.23-11.68,0-2.19-.58-4-2.84-5.21-3.63-1.88-7.16-3.94-10.61-6.11-2.51-1.59-5.14-3-7.62-4.58a4.87,4.87,0,0,0-5,0c-2.29,1.07-4.3,2.67-6.49,3.93-2.45,1.42-4.89,2.86-7.38,4.23a38,38,0,0,0-5.31,3.1,4.76,4.76,0,0,0-2,3.61c-.2,3.42.2,6.81.15,10.22s-.09,6.7-.12,10.05c0,.66,0,1.32.06,2a4.9,4.9,0,0,0,2.75,4c3.06,1.84,6.28,3.38,9.36,5.19,1.35.8,2.65,1.68,4,2.49.79.48,1,.34,1-.6,0-4.13,0-8.27,0-12.4a2.27,2.27,0,0,0-.83-1.85A10.38,10.38,0,0,1,25.69,41,10.56,10.56,0,0,1,37.82,29.47a10.21,10.21,0,0,1,7.76,5.37,10.41,10.41,0,0,1,.77,8.42A11.49,11.49,0,0,1,43,48.2a1.7,1.7,0,0,0-.39,1.43c0,2.78,0,5.55,0,8.33q0,10.82.05,21.63c0,1.48-.05,3-.12,4.43-.05,1-.45,1.19-1.29.71-2.66-1.51-5.3-3-7.94-4.57h0c-2.07-1.2-4.18-2.33-6.2-3.6C23.11,74,19,71.64,14.82,69.26,12.7,68.05,10.5,67,8.37,65.77a46.7,46.7,0,0,1-5-3.42,8,8,0,0,1-3-5.41,47.28,47.28,0,0,1-.28-8.66C.13,44,.23,39.71.18,35.42c0-4.1-.3-8.21.33-12.3a8.78,8.78,0,0,1,3.76-6,79.67,79.67,0,0,1,8.38-5c3.76-2,7.41-4.29,11.09-6.48,2.68-1.58,5.35-3.18,8.13-4.57A8.93,8.93,0,0,1,40,.87a72.21,72.21,0,0,1,8.81,4.84Q53.24,8.52,57.84,11c2.25,1.24,4.51,2.46,6.74,3.72a42.78,42.78,0,0,1,4.3,2.86A7.76,7.76,0,0,1,72,23a76.08,76.08,0,0,1,.3,11.4c-.06,3.68.1,7.36.15,11s.4,7.25-.15,10.85a9.09,9.09,0,0,1-2.61,5.53A30.68,30.68,0,0,1,63.36,66.19Z"/></g></g></svg>