<svg width="80" height="74" viewBox="0 0 80 74" fill="none" xmlns="http://www.w3.org/2000/svg">
<path d="M39.9524 44.7687C43.9706 44.7687 47.2281 41.4221 47.2281 37.2938C47.2281 33.1655 43.9706 29.8188 39.9524 29.8188C35.9342 29.8188 32.6768 33.1655 32.6768 37.2938C32.6768 41.4221 35.9342 44.7687 39.9524 44.7687Z" fill="#61DAFB"/>
<path d="M67.587 24.9667C66.1829 24.4422 64.715 23.9176 63.1833 23.4586C63.5663 21.885 63.8854 20.3113 64.1407 18.8032C65.4809 10.148 64.013 4.05001 59.9284 1.6895C58.7158 0.968229 57.3756 0.640381 55.8439 0.640381C51.3763 0.640381 45.6962 4.05001 39.9523 9.75457C34.2083 4.05001 28.5282 0.640381 24.0607 0.640381C22.529 0.640381 21.1888 0.968229 19.9761 1.6895C15.8916 4.11558 14.4237 10.2136 15.7639 18.8032C16.0192 20.3113 16.3383 21.885 16.7212 23.4586C15.1895 23.9176 13.7216 24.3766 12.3176 24.9667C4.33987 28.1141 0 32.4417 0 37.2939C0 42.146 4.40369 46.4736 12.3176 49.621C13.7216 50.1455 15.1895 50.6701 16.7212 51.1291C16.3383 52.7027 16.0192 54.2764 15.7639 55.7845C14.4237 64.4397 15.8916 70.5377 19.9761 72.8982C21.1888 73.6195 22.529 73.9473 24.0607 73.9473C28.5921 73.9473 34.2722 70.5377 39.9523 64.8331C45.6962 70.5377 51.3763 73.9473 55.8439 73.9473C57.3756 73.9473 58.7158 73.6195 59.9284 72.8982C64.013 70.4721 65.4809 64.3741 64.1407 55.7845C63.8854 54.2764 63.5663 52.7027 63.1833 51.1291C64.715 50.6701 66.1829 50.2111 67.587 49.621C75.5647 46.4736 79.9046 42.146 79.9046 37.2939C79.9046 32.4417 75.5647 28.1141 67.587 24.9667ZM58.1414 4.96798C60.7581 6.54166 61.6516 11.3938 60.5667 18.2786C60.3752 19.6556 60.0561 21.0981 59.6731 22.6062C56.3544 21.8194 52.8442 21.2948 49.1426 20.967C46.9727 17.8196 44.7389 15.0001 42.5051 12.4429C47.2279 7.65634 52.0146 4.37785 55.9077 4.37785C56.7374 4.37785 57.5032 4.57456 58.1414 4.96798ZM50.9934 43.8508C49.8446 45.9491 48.5044 48.0473 47.1003 50.1455C44.7389 50.3422 42.3775 50.4078 39.9523 50.4078C37.4632 50.4078 35.1018 50.3422 32.8043 50.1455C31.4002 48.0473 30.1238 45.9491 28.975 43.8508C27.7624 41.687 26.6136 39.4577 25.5924 37.2939C26.6136 35.1301 27.7624 32.9007 28.975 30.7369C30.1238 28.6387 31.464 26.5404 32.8681 24.4422C35.2295 24.2455 37.5909 24.1799 40.0161 24.1799C42.5051 24.1799 44.8666 24.2455 47.1641 24.4422C48.5682 26.5404 49.8446 28.6387 50.9934 30.7369C52.206 32.9007 53.3548 35.1301 54.376 37.2939C53.291 39.4577 52.206 41.6215 50.9934 43.8508ZM56.2906 41.687C57.2479 43.982 58.0138 46.2113 58.7158 48.4407C56.5459 48.9653 54.2483 49.3587 51.8231 49.6865C52.589 48.4407 53.4186 47.1293 54.1207 45.7524C54.8865 44.3754 55.5886 42.9984 56.2906 41.687ZM39.9523 59.4564C38.4206 57.7516 36.9527 55.9157 35.5486 54.0141C37.0165 54.0797 38.4844 54.1453 39.9523 54.1453C41.4202 54.1453 42.8881 54.0797 44.356 54.0141C42.9519 55.9157 41.484 57.7516 39.9523 59.4564ZM28.0815 49.621C25.6563 49.2931 23.3587 48.8997 21.1888 48.3751C21.8908 46.2113 22.6567 43.9164 23.614 41.6215C24.316 42.9329 25.018 44.3098 25.7839 45.6212C26.5498 47.0637 27.3156 48.3096 28.0815 49.621ZM23.614 32.9007C22.6567 30.6057 21.8908 28.3764 21.1888 26.147C23.3587 25.6224 25.6563 25.229 28.0815 24.9012C27.3156 26.147 26.4859 27.4584 25.7839 28.8354C25.018 30.2123 24.316 31.5893 23.614 32.9007ZM39.9523 15.1313C41.484 16.8361 42.9519 18.6721 44.356 20.5736C42.8881 20.508 41.4202 20.4424 39.9523 20.4424C38.4844 20.4424 37.0165 20.508 35.5486 20.5736C36.9527 18.6721 38.4206 16.8361 39.9523 15.1313ZM54.1207 28.9009L51.8231 24.9667C54.2483 25.2946 56.5459 25.688 58.7158 26.2126C58.0138 28.3764 57.2479 30.6713 56.2906 32.9663C55.5886 31.5893 54.8865 30.2123 54.1207 28.9009ZM19.3379 18.2786C18.253 11.3938 19.1465 6.54166 21.7631 4.96798C22.4014 4.57456 23.1672 4.37785 23.9969 4.37785C27.8262 4.37785 32.6128 7.59077 37.3994 12.4429C35.1657 14.9346 32.9319 17.8196 30.762 20.967C27.0603 21.2948 23.5501 21.885 20.2314 22.6062C19.8485 21.0981 19.5932 19.6556 19.3379 18.2786ZM3.57401 37.2939C3.57401 34.2121 7.21184 30.9336 13.594 28.5075C14.8704 27.983 16.2745 27.524 17.6786 27.1306C18.6997 30.409 19.9761 33.8842 21.5079 37.3594C19.9761 40.8346 18.6359 44.2442 17.6786 47.5227C8.8712 44.8999 3.57401 40.9658 3.57401 37.2939ZM21.7631 69.6197C19.1465 68.0461 18.253 63.1939 19.3379 56.3091C19.5294 54.9321 19.8485 53.4896 20.2314 51.9815C23.5501 52.7683 27.0603 53.2929 30.762 53.6207C32.9319 56.7681 35.1657 59.5876 37.3994 62.1448C32.6766 66.9314 27.89 70.2099 23.9969 70.2099C23.1672 70.2099 22.4014 70.0132 21.7631 69.6197ZM60.5667 56.3091C61.6516 63.1939 60.7581 68.0461 58.1414 69.6197C57.5032 70.0132 56.7374 70.2099 55.9077 70.2099C52.0784 70.2099 47.2918 66.9969 42.5051 62.1448C44.7389 59.6531 46.9727 56.7681 49.1426 53.6207C52.8442 53.2929 56.3544 52.7027 59.6731 51.9815C60.0561 53.4896 60.3114 54.9321 60.5667 56.3091ZM66.3106 46.0802C65.0342 46.6048 63.6301 47.0637 62.226 47.4572C61.2049 44.1787 59.9284 40.7035 58.3967 37.2283C59.9284 33.7531 61.2687 30.3435 62.226 27.065C71.0334 29.6878 76.3306 33.622 76.3306 37.2939C76.3306 40.3756 72.6289 43.6541 66.3106 46.0802Z" fill="#61DAFB"/>
</svg>
