<svg width="82" height="81" viewBox="0 0 82 81" fill="none" xmlns="http://www.w3.org/2000/svg">
<path d="M78.3817 29.2737H14.3831V76.5776H78.3817V29.2737Z" fill="white"/>
<path d="M0.789551 40.1316V80.2632H81.0527V0H0.789551V40.1316ZM65.4688 36.9211C67.3912 37.3672 69.1384 38.3726 70.4901 39.8105C71.2342 40.5852 71.8811 41.4477 72.4164 42.3789C72.4164 42.4817 68.949 44.8254 66.8365 46.1353C66.7594 46.1866 66.4512 45.8527 66.1109 45.3455C65.7253 44.68 65.1773 44.1232 64.5182 43.7268C63.8591 43.3304 63.1103 43.1075 62.3418 43.0788C59.9082 42.9119 58.3414 44.1897 58.3543 46.2894C58.3342 46.8121 58.4539 47.3308 58.701 47.7919C59.234 48.9027 60.2292 49.5641 63.3499 50.9125C69.0967 53.3846 71.556 55.0156 73.0842 57.3336C74.7922 59.902 75.171 64.05 74.0152 67.1193C72.731 70.4582 69.5847 72.7248 65.1349 73.4761C63.1026 73.7089 61.0491 73.6873 59.0221 73.4119C55.9153 72.8998 53.0536 71.4082 50.8545 69.1547C50.1161 68.3393 48.6778 66.2139 48.7677 66.0598C49.0021 65.8858 49.2489 65.7291 49.5061 65.591L52.479 63.9473L54.7842 62.6117L55.2658 63.3244C56.0785 64.487 57.1128 65.4777 58.3093 66.2396C60.8778 67.588 64.3837 67.4018 66.1173 65.8415C66.6994 65.2697 67.0626 64.5119 67.1435 63.7C67.2245 62.8881 67.0181 62.0735 66.5604 61.3981C65.9183 60.5056 64.6341 59.7543 61.0447 58.1876C56.9031 56.4025 55.1181 55.2981 53.4871 53.5387C52.469 52.3777 51.7172 51.008 51.2847 49.5256C50.9621 47.832 50.9144 46.0975 51.1434 44.3887C51.9974 40.3884 54.9961 37.5953 59.3752 36.7669C61.4033 36.516 63.4576 36.5723 65.4688 36.9339V36.9211ZM46.6294 40.2857V43.5733H36.2081V73.2578H28.8174V43.5668H18.3704V40.3563C18.3379 39.2492 18.3636 38.1411 18.4474 37.0366C18.4988 36.9788 24.8685 36.9788 32.5738 36.9788H46.5909L46.6294 40.2857Z" fill="#007ACC"/>
</svg>
